<svg xmlns="http://www.w3.org/2000/svg" version="1.1" xmlns:xlink="http://www.w3.org/1999/xlink" xmlns:svgjs="http://svgjs.dev/svgjs" viewBox="0 0 11.290919739100023 8.680156708701908"><g transform="matrix(1,0,0,1,0.8235604554875113,5.919500061808147)"><rect width="11.290919739100023" height="11.290919739100023" x="-0.8235604554875113" y="-7.224881577007205" fill="#ffffff"></rect><g><path d=" M 0.1259765625 0.343505859375 Q 0.1259765625 0.28125 0.12451171875 0.2347412109375 Q 0.123046875 0.188232421875 0.1201171875 0.1541748046875 Q 0.1171875 0.1201171875 0.1131591796875 0.097412109375 Q 0.109130859375 0.07470703125 0.104736328125 0.059326171875 L 0.104736328125 0.056396484375 Q 0.119384765625 0.05712890625 0.135498046875 0.05712890625 Q 0.1494140625 0.057861328125 0.1666259765625 0.057861328125 Q 0.183837890625 0.057861328125 0.2021484375 0.057861328125 Q 0.228515625 0.057861328125 0.2735595703125 0.052734375 Q 0.318603515625 0.047607421875 0.3896484375 0.047607421875 Q 0.45556640625 0.047607421875 0.51123046875 0.0648193359375 Q 0.56689453125 0.08203125 0.6075439453125 0.1142578125 Q 0.648193359375 0.146484375 0.6712646484375 0.1937255859375 Q 0.6943359375 0.240966796875 0.6943359375 0.301025390625 Q 0.6943359375 0.3515625 0.680419921875 0.3914794921875 Q 0.66650390625 0.431396484375 0.6412353515625 0.4610595703125 Q 0.615966796875 0.49072265625 0.5804443359375 0.5108642578125 Q 0.544921875 0.531005859375 0.50244140625 0.542724609375 Q 0.564697265625 0.55224609375 0.615966796875 0.5745849609375 Q 0.667236328125 0.596923828125 0.7042236328125 0.630615234375 Q 0.7412109375 0.664306640625 0.7613525390625 0.7093505859375 Q 0.781494140625 0.75439453125 0.781494140625 0.809326171875 Q 0.781494140625 0.9638671875 0.6796875 1.0411376953125 Q 0.577880859375 1.118408203125 0.375 1.118408203125 Q 0.35302734375 1.118408203125 0.32373046875 1.1165771484375 Q 0.29443359375 1.11474609375 0.2640380859375 1.112548828125 Q 0.233642578125 1.1103515625 0.204345703125 1.1085205078125 Q 0.175048828125 1.106689453125 0.153076171875 1.106689453125 L 0.104736328125 1.106689453125 L 0.104736328125 1.103759765625 Q 0.109130859375 1.08837890625 0.1131591796875 1.065673828125 Q 0.1171875 1.04296875 0.1201171875 1.00927734375 Q 0.123046875 0.9755859375 0.12451171875 0.9290771484375 Q 0.1259765625 0.882568359375 0.1259765625 0.8203125 L 0.1259765625 0.343505859375 M 0.394775390625 0.58740234375 Q 0.344970703125 0.58740234375 0.311279296875 0.591064453125 Q 0.277587890625 0.5947265625 0.25927734375 0.598388671875 L 0.25927734375 0.8203125 Q 0.25927734375 0.906005859375 0.26220703125 0.961669921875 Q 0.26513671875 1.017333984375 0.270263671875 1.052490234375 Q 0.298095703125 1.05615234375 0.325927734375 1.05908203125 Q 0.353759765625 1.06201171875 0.37060546875 1.06201171875 Q 0.507568359375 1.06201171875 0.5709228515625 1.0008544921875 Q 0.63427734375 0.939697265625 0.63427734375 0.81298828125 Q 0.63427734375 0.76318359375 0.6192626953125 0.7218017578125 Q 0.604248046875 0.680419921875 0.5745849609375 0.650390625 Q 0.544921875 0.620361328125 0.4998779296875 0.6038818359375 Q 0.454833984375 0.58740234375 0.394775390625 0.58740234375 M 0.25927734375 0.532470703125 Q 0.27978515625 0.53466796875 0.2958984375 0.5350341796875 Q 0.31201171875 0.535400390625 0.330322265625 0.535400390625 Q 0.380126953125 0.535400390625 0.421142578125 0.5211181640625 Q 0.462158203125 0.5068359375 0.4910888671875 0.478271484375 Q 0.52001953125 0.44970703125 0.5361328125 0.4068603515625 Q 0.55224609375 0.364013671875 0.55224609375 0.306884765625 Q 0.55224609375 0.25927734375 0.54052734375 0.220458984375 Q 0.52880859375 0.181640625 0.5057373046875 0.1541748046875 Q 0.482666015625 0.126708984375 0.448974609375 0.112060546875 Q 0.415283203125 0.097412109375 0.3720703125 0.097412109375 Q 0.34423828125 0.097412109375 0.3233642578125 0.099609375 Q 0.302490234375 0.101806640625 0.287841796875 0.104736328125 Q 0.27099609375 0.107666015625 0.25927734375 0.112060546875 L 0.25927734375 0.532470703125 M 0.89208984375 0.730224609375 Q 0.89208984375 0.6474609375 0.9228515625 0.5767822265625 Q 0.95361328125 0.506103515625 1.0074462890625 0.4541015625 Q 1.061279296875 0.402099609375 1.134521484375 0.372802734375 Q 1.207763671875 0.343505859375 1.2919921875 0.343505859375 Q 1.374755859375 0.343505859375 1.4476318359375 0.3709716796875 Q 1.5205078125 0.3984375 1.57470703125 0.448974609375 Q 1.62890625 0.49951171875 1.6600341796875 0.572021484375 Q 1.691162109375 0.64453125 1.691162109375 0.734619140625 Q 1.691162109375 0.81005859375 1.664794921875 0.879638671875 Q 1.638427734375 0.94921875 1.587158203125 1.002685546875 Q 1.535888671875 1.05615234375 1.4615478515625 1.0880126953125 Q 1.38720703125 1.119873046875 1.29052734375 1.119873046875 Q 1.20849609375 1.119873046875 1.135986328125 1.0927734375 Q 1.0634765625 1.065673828125 1.00927734375 1.01513671875 Q 0.955078125 0.964599609375 0.923583984375 0.8924560546875 Q 0.89208984375 0.8203125 0.89208984375 0.730224609375 M 1.307373046875 1.06640625 Q 1.359375 1.06640625 1.4029541015625 1.0458984375 Q 1.446533203125 1.025390625 1.47802734375 0.986572265625 Q 1.509521484375 0.94775390625 1.527099609375 0.89208984375 Q 1.544677734375 0.83642578125 1.544677734375 0.76611328125 Q 1.544677734375 0.68701171875 1.52783203125 0.6192626953125 Q 1.510986328125 0.551513671875 1.4776611328125 0.5020751953125 Q 1.4443359375 0.45263671875 1.393798828125 0.4248046875 Q 1.34326171875 0.39697265625 1.27587890625 0.39697265625 Q 1.223876953125 0.39697265625 1.1806640625 0.4171142578125 Q 1.137451171875 0.437255859375 1.1055908203125 0.475341796875 Q 1.07373046875 0.513427734375 1.05615234375 0.5687255859375 Q 1.03857421875 0.6240234375 1.03857421875 0.6943359375 Q 1.03857421875 0.7734375 1.0557861328125 0.841552734375 Q 1.072998046875 0.90966796875 1.106689453125 0.9598388671875 Q 1.140380859375 1.010009765625 1.1905517578125 1.0382080078125 Q 1.24072265625 1.06640625 1.307373046875 1.06640625 M 1.79296875 0.730224609375 Q 1.79296875 0.6474609375 1.82373046875 0.5767822265625 Q 1.8544921875 0.506103515625 1.9083251953125 0.4541015625 Q 1.962158203125 0.402099609375 2.035400390625 0.372802734375 Q 2.108642578125 0.343505859375 2.19287109375 0.343505859375 Q 2.275634765625 0.343505859375 2.3485107421875 0.3709716796875 Q 2.42138671875 0.3984375 2.4755859375 0.448974609375 Q 2.52978515625 0.49951171875 2.5609130859375 0.572021484375 Q 2.592041015625 0.64453125 2.592041015625 0.734619140625 Q 2.592041015625 0.81005859375 2.565673828125 0.879638671875 Q 2.539306640625 0.94921875 2.488037109375 1.002685546875 Q 2.436767578125 1.05615234375 2.3624267578125 1.0880126953125 Q 2.2880859375 1.119873046875 2.19140625 1.119873046875 Q 2.109375 1.119873046875 2.036865234375 1.0927734375 Q 1.96435546875 1.065673828125 1.91015625 1.01513671875 Q 1.85595703125 0.964599609375 1.824462890625 0.8924560546875 Q 1.79296875 0.8203125 1.79296875 0.730224609375 M 2.208251953125 1.06640625 Q 2.26025390625 1.06640625 2.3038330078125 1.0458984375 Q 2.347412109375 1.025390625 2.37890625 0.986572265625 Q 2.410400390625 0.94775390625 2.427978515625 0.89208984375 Q 2.445556640625 0.83642578125 2.445556640625 0.76611328125 Q 2.445556640625 0.68701171875 2.4287109375 0.6192626953125 Q 2.411865234375 0.551513671875 2.3785400390625 0.5020751953125 Q 2.34521484375 0.45263671875 2.294677734375 0.4248046875 Q 2.244140625 0.39697265625 2.1767578125 0.39697265625 Q 2.124755859375 0.39697265625 2.08154296875 0.4171142578125 Q 2.038330078125 0.437255859375 2.0064697265625 0.475341796875 Q 1.974609375 0.513427734375 1.95703125 0.5687255859375 Q 1.939453125 0.6240234375 1.939453125 0.6943359375 Q 1.939453125 0.7734375 1.9566650390625 0.841552734375 Q 1.973876953125 0.90966796875 2.007568359375 0.9598388671875 Q 2.041259765625 1.010009765625 2.0914306640625 1.0382080078125 Q 2.1416015625 1.06640625 2.208251953125 1.06640625 M 2.75537109375 0.298095703125 Q 2.75537109375 0.23583984375 2.7535400390625 0.1893310546875 Q 2.751708984375 0.142822265625 2.7491455078125 0.109130859375 Q 2.74658203125 0.075439453125 2.7425537109375 0.052734375 Q 2.738525390625 0.030029296875 2.734130859375 0.0146484375 L 2.734130859375 0.01171875 L 2.9033203125 0.01171875 L 2.9033203125 0.0146484375 Q 2.89892578125 0.030029296875 2.895263671875 0.052734375 Q 2.8916015625 0.075439453125 2.888671875 0.109130859375 Q 2.8857421875 0.142822265625 2.88427734375 0.1893310546875 Q 2.8828125 0.23583984375 2.8828125 0.298095703125 L 2.8828125 0.662841796875 L 3.122314453125 0.4482421875 Q 3.185302734375 0.393310546875 3.185302734375 0.356689453125 L 3.355224609375 0.356689453125 L 3.355224609375 0.359619140625 Q 3.336181640625 0.365478515625 3.3189697265625 0.3746337890625 Q 3.3017578125 0.3837890625 3.2845458984375 0.396240234375 Q 3.267333984375 0.40869140625 3.2486572265625 0.4244384765625 Q 3.22998046875 0.440185546875 3.2080078125 0.4599609375 L 2.993408203125 0.655517578125 L 3.287841796875 1.00341796875 Q 3.301025390625 1.01953125 3.31640625 1.0360107421875 Q 3.331787109375 1.052490234375 3.34716796875 1.06640625 Q 3.362548828125 1.080322265625 3.377197265625 1.090576171875 Q 3.391845703125 1.100830078125 3.404296875 1.103759765625 L 3.404296875 1.106689453125 L 3.19189453125 1.106689453125 Q 3.19189453125 1.087646484375 3.1820068359375 1.067138671875 Q 3.172119140625 1.046630859375 3.146484375 1.01513671875 L 2.8828125 0.70166015625 L 2.8828125 0.8203125 Q 2.8828125 0.882568359375 2.88427734375 0.9290771484375 Q 2.8857421875 0.9755859375 2.888671875 1.00927734375 Q 2.8916015625 1.04296875 2.895263671875 1.065673828125 Q 2.89892578125 1.08837890625 2.9033203125 1.103759765625 L 2.9033203125 1.106689453125 L 2.734130859375 1.106689453125 L 2.734130859375 1.103759765625 Q 2.738525390625 1.08837890625 2.7425537109375 1.065673828125 Q 2.74658203125 1.04296875 2.7491455078125 1.00927734375 Q 2.751708984375 0.9755859375 2.7535400390625 0.9290771484375 Q 2.75537109375 0.882568359375 2.75537109375 0.8203125 L 2.75537109375 0.298095703125 M 3.48779296875 0.64306640625 Q 3.48779296875 0.580810546875 3.4859619140625 0.5343017578125 Q 3.484130859375 0.48779296875 3.4815673828125 0.4541015625 Q 3.47900390625 0.42041015625 3.4749755859375 0.397705078125 Q 3.470947265625 0.375 3.466552734375 0.359619140625 L 3.466552734375 0.356689453125 L 3.6357421875 0.356689453125 L 3.6357421875 0.359619140625 Q 3.63134765625 0.375 3.627685546875 0.397705078125 Q 3.6240234375 0.42041015625 3.62109375 0.4541015625 Q 3.6181640625 0.48779296875 3.61669921875 0.5343017578125 Q 3.615234375 0.580810546875 3.615234375 0.64306640625 L 3.615234375 0.8203125 Q 3.615234375 0.882568359375 3.61669921875 0.9290771484375 Q 3.6181640625 0.9755859375 3.62109375 1.00927734375 Q 3.6240234375 1.04296875 3.627685546875 1.065673828125 Q 3.63134765625 1.08837890625 3.6357421875 1.103759765625 L 3.6357421875 1.106689453125 L 3.466552734375 1.106689453125 L 3.466552734375 1.103759765625 Q 3.470947265625 1.08837890625 3.4749755859375 1.065673828125 Q 3.47900390625 1.04296875 3.4815673828125 1.00927734375 Q 3.484130859375 0.9755859375 3.4859619140625 0.9290771484375 Q 3.48779296875 0.882568359375 3.48779296875 0.8203125 L 3.48779296875 0.64306640625 M 3.472412109375 0.134765625 Q 3.472412109375 0.11865234375 3.4786376953125 0.1043701171875 Q 3.48486328125 0.090087890625 3.4951171875 0.0794677734375 Q 3.50537109375 0.06884765625 3.5196533203125 0.0626220703125 Q 3.533935546875 0.056396484375 3.55078125 0.056396484375 Q 3.567626953125 0.056396484375 3.5819091796875 0.0626220703125 Q 3.59619140625 0.06884765625 3.6068115234375 0.0794677734375 Q 3.617431640625 0.090087890625 3.6236572265625 0.1043701171875 Q 3.6298828125 0.11865234375 3.6298828125 0.134765625 Q 3.6298828125 0.16845703125 3.607177734375 0.191162109375 Q 3.58447265625 0.2138671875 3.55078125 0.2138671875 Q 3.533935546875 0.2138671875 3.5196533203125 0.2076416015625 Q 3.50537109375 0.201416015625 3.4951171875 0.1907958984375 Q 3.48486328125 0.18017578125 3.4786376953125 0.1658935546875 Q 3.472412109375 0.151611328125 3.472412109375 0.134765625 M 4.172607421875 1.119873046875 Q 4.09130859375 1.119873046875 4.020263671875 1.09423828125 Q 3.94921875 1.068603515625 3.896484375 1.0191650390625 Q 3.84375 0.9697265625 3.8133544921875 0.8968505859375 Q 3.782958984375 0.823974609375 3.782958984375 0.730224609375 Q 3.782958984375 0.6474609375 3.810791015625 0.5767822265625 Q 3.838623046875 0.506103515625 3.8876953125 0.4541015625 Q 3.936767578125 0.402099609375 4.0023193359375 0.372802734375 Q 4.06787109375 0.343505859375 4.14404296875 0.343505859375 Q 4.219482421875 0.343505859375 4.283935546875 0.3695068359375 Q 4.348388671875 0.3955078125 4.3956298828125 0.4449462890625 Q 4.44287109375 0.494384765625 4.4703369140625 0.5672607421875 Q 4.497802734375 0.64013671875 4.5 0.733154296875 Q 4.417236328125 0.731689453125 4.33447265625 0.73095703125 Q 4.251708984375 0.730224609375 4.162353515625 0.730224609375 Q 4.0986328125 0.730224609375 4.0382080078125 0.73095703125 Q 3.977783203125 0.731689453125 3.929443359375 0.733154296875 Q 3.933837890625 0.809326171875 3.9532470703125 0.870849609375 Q 3.97265625 0.932373046875 4.0067138671875 0.9759521484375 Q 4.040771484375 1.01953125 4.0894775390625 1.04296875 Q 4.13818359375 1.06640625 4.19970703125 1.06640625 Q 4.2421875 1.06640625 4.2799072265625 1.0565185546875 Q 4.317626953125 1.046630859375 4.348388671875 1.029052734375 Q 4.379150390625 1.011474609375 4.4033203125 0.9876708984375 Q 4.427490234375 0.9638671875 4.4443359375 0.93603515625 L 4.453125 0.9404296875 L 4.39892578125 1.07080078125 Q 4.359375 1.09130859375 4.304443359375 1.1055908203125 Q 4.24951171875 1.119873046875 4.172607421875 1.119873046875 M 4.0751953125 0.673095703125 Q 4.1484375 0.673095703125 4.2220458984375 0.6727294921875 Q 4.295654296875 0.67236328125 4.355712890625 0.670166015625 Q 4.34912109375 0.6064453125 4.330810546875 0.555908203125 Q 4.3125 0.50537109375 4.283935546875 0.47021484375 Q 4.25537109375 0.43505859375 4.216552734375 0.416015625 Q 4.177734375 0.39697265625 4.130859375 0.39697265625 Q 4.08837890625 0.39697265625 4.0528564453125 0.4156494140625 Q 4.017333984375 0.434326171875 3.990966796875 0.469482421875 Q 3.964599609375 0.504638671875 3.948486328125 0.5555419921875 Q 3.932373046875 0.6064453125 3.929443359375 0.671630859375 Q 3.96240234375 0.673095703125 3.9990234375 0.673095703125 Q 4.03564453125 0.673095703125 4.0751953125 0.673095703125 M 4.98779296875 0.50390625 L 4.9775390625 0.50537109375 Q 4.972412109375 0.488525390625 4.9610595703125 0.469482421875 Q 4.94970703125 0.450439453125 4.9317626953125 0.434326171875 Q 4.913818359375 0.418212890625 4.8885498046875 0.4075927734375 Q 4.86328125 0.39697265625 4.830322265625 0.39697265625 Q 4.8076171875 0.39697265625 4.7874755859375 0.403564453125 Q 4.767333984375 0.41015625 4.7523193359375 0.4229736328125 Q 4.7373046875 0.435791015625 4.728515625 0.454833984375 Q 4.7197265625 0.473876953125 4.7197265625 0.49951171875 Q 4.7197265625 0.535400390625 4.7420654296875 0.5679931640625 Q 4.764404296875 0.6005859375 4.798095703125 0.6324462890625 Q 4.831787109375 0.664306640625 4.8709716796875 0.696533203125 Q 4.91015625 0.728759765625 4.94384765625 0.763916015625 Q 4.9775390625 0.799072265625 4.9998779296875 0.8389892578125 Q 5.022216796875 0.87890625 5.022216796875 0.925048828125 Q 5.022216796875 0.96240234375 5.009033203125 0.9979248046875 Q 4.995849609375 1.033447265625 4.9683837890625 1.061279296875 Q 4.94091796875 1.089111328125 4.8980712890625 1.1063232421875 Q 4.855224609375 1.12353515625 4.7958984375 1.12353515625 Q 4.7607421875 1.12353515625 4.7303466796875 1.116943359375 Q 4.699951171875 1.1103515625 4.6746826171875 1.1004638671875 Q 4.6494140625 1.090576171875 4.6292724609375 1.0784912109375 Q 4.609130859375 1.06640625 4.59375 1.055419921875 L 4.60107421875 0.916259765625 L 4.61279296875 0.916259765625 Q 4.6201171875 0.95068359375 4.634765625 0.979248046875 Q 4.6494140625 1.0078125 4.6710205078125 1.0279541015625 Q 4.692626953125 1.048095703125 4.720458984375 1.0594482421875 Q 4.748291015625 1.07080078125 4.78125 1.07080078125 Q 4.83544921875 1.07080078125 4.8673095703125 1.040771484375 Q 4.899169921875 1.0107421875 4.899169921875 0.96240234375 Q 4.899169921875 0.923583984375 4.8775634765625 0.8909912109375 Q 4.85595703125 0.8583984375 4.822998046875 0.828369140625 Q 4.7900390625 0.79833984375 4.7523193359375 0.768310546875 Q 4.714599609375 0.73828125 4.681640625 0.7042236328125 Q 4.648681640625 0.670166015625 4.6270751953125 0.6295166015625 Q 4.60546875 0.5888671875 4.60546875 0.536865234375 Q 4.60546875 0.494384765625 4.6212158203125 0.4588623046875 Q 4.636962890625 0.42333984375 4.6651611328125 0.3980712890625 Q 4.693359375 0.372802734375 4.732177734375 0.35888671875 Q 4.77099609375 0.344970703125 4.817138671875 0.344970703125 Q 4.8779296875 0.344970703125 4.9185791015625 0.3577880859375 Q 4.959228515625 0.37060546875 4.98046875 0.38232421875 L 4.98779296875 0.50390625 M 5.656494140625 0.64306640625 Q 5.656494140625 0.561767578125 5.6531982421875 0.5057373046875 Q 5.64990234375 0.44970703125 5.6455078125 0.413818359375 L 5.33935546875 0.413818359375 L 5.33935546875 0.8203125 Q 5.33935546875 0.882568359375 5.3411865234375 0.9290771484375 Q 5.343017578125 0.9755859375 5.3455810546875 1.00927734375 Q 5.34814453125 1.04296875 5.3521728515625 1.065673828125 Q 5.356201171875 1.08837890625 5.360595703125 1.103759765625 L 5.360595703125 1.106689453125 L 5.19140625 1.106689453125 L 5.19140625 1.103759765625 Q 5.19580078125 1.08837890625 5.199462890625 1.065673828125 Q 5.203125 1.04296875 5.2060546875 1.00927734375 Q 5.208984375 0.9755859375 5.21044921875 0.9290771484375 Q 5.2119140625 0.882568359375 5.2119140625 0.8203125 L 5.2119140625 0.413818359375 L 5.0888671875 0.418212890625 L 5.0888671875 0.353759765625 Q 5.111572265625 0.355224609375 5.14306640625 0.35595703125 Q 5.174560546875 0.356689453125 5.2119140625 0.356689453125 L 5.2119140625 0.2724609375 Q 5.2119140625 0.22119140625 5.2247314453125 0.180908203125 Q 5.237548828125 0.140625 5.2598876953125 0.110595703125 Q 5.2822265625 0.08056640625 5.3118896484375 0.059326171875 Q 5.341552734375 0.0380859375 5.37451171875 0.02490234375 Q 5.407470703125 0.01171875 5.44189453125 0.005859375 Q 5.476318359375 0 5.50927734375 0 Q 5.5458984375 0 5.577392578125 0.0029296875 Q 5.60888671875 0.005859375 5.6337890625 0.01025390625 Q 5.65869140625 0.0146484375 5.6766357421875 0.01904296875 Q 5.694580078125 0.0234375 5.7041015625 0.0263671875 L 5.732666015625 0.15087890625 L 5.723876953125 0.156005859375 Q 5.709228515625 0.1376953125 5.688720703125 0.1201171875 Q 5.668212890625 0.1025390625 5.6414794921875 0.0882568359375 Q 5.61474609375 0.073974609375 5.5810546875 0.065185546875 Q 5.54736328125 0.056396484375 5.50634765625 0.056396484375 Q 5.488037109375 0.056396484375 5.4598388671875 0.062255859375 Q 5.431640625 0.068115234375 5.4049072265625 0.0882568359375 Q 5.378173828125 0.1083984375 5.3587646484375 0.1483154296875 Q 5.33935546875 0.188232421875 5.33935546875 0.25634765625 L 5.33935546875 0.356689453125 Q 5.439697265625 0.35595703125 5.521728515625 0.3548583984375 Q 5.603759765625 0.353759765625 5.6641845703125 0.352294921875 Q 5.724609375 0.350830078125 5.7608642578125 0.3489990234375 Q 5.797119140625 0.34716796875 5.805908203125 0.344970703125 Q 5.798583984375 0.38232421875 5.794189453125 0.416015625 Q 5.789794921875 0.44970703125 5.78759765625 0.48486328125 Q 5.785400390625 0.52001953125 5.78466796875 0.5584716796875 Q 5.783935546875 0.596923828125 5.783935546875 0.64306640625 L 5.783935546875 0.8203125 Q 5.783935546875 0.882568359375 5.785400390625 0.9290771484375 Q 5.786865234375 0.9755859375 5.789794921875 1.00927734375 Q 5.792724609375 1.04296875 5.79638671875 1.065673828125 Q 5.800048828125 1.08837890625 5.804443359375 1.103759765625 L 5.804443359375 1.106689453125 L 5.63525390625 1.106689453125 L 5.63525390625 1.103759765625 Q 5.6396484375 1.08837890625 5.6436767578125 1.065673828125 Q 5.647705078125 1.04296875 5.6502685546875 1.00927734375 Q 5.65283203125 0.9755859375 5.6546630859375 0.9290771484375 Q 5.656494140625 0.882568359375 5.656494140625 0.8203125 L 5.656494140625 0.64306640625 M 6.516357421875 0.613037109375 Q 6.516357421875 0.516357421875 6.4775390625 0.470947265625 Q 6.438720703125 0.425537109375 6.37353515625 0.425537109375 Q 6.35009765625 0.425537109375 6.32080078125 0.4354248046875 Q 6.29150390625 0.4453125 6.2607421875 0.4617919921875 Q 6.22998046875 0.478271484375 6.19921875 0.500244140625 Q 6.16845703125 0.522216796875 6.141357421875 0.547119140625 L 6.139892578125 0.64306640625 L 6.139892578125 0.8203125 Q 6.139892578125 0.882568359375 6.141357421875 0.9290771484375 Q 6.142822265625 0.9755859375 6.145751953125 1.00927734375 Q 6.148681640625 1.04296875 6.15234375 1.065673828125 Q 6.156005859375 1.08837890625 6.160400390625 1.103759765625 L 6.160400390625 1.106689453125 L 5.9912109375 1.106689453125 L 5.9912109375 1.103759765625 Q 5.99560546875 1.08837890625 5.9996337890625 1.065673828125 Q 6.003662109375 1.04296875 6.0062255859375 1.00927734375 Q 6.0087890625 0.9755859375 6.0106201171875 0.9290771484375 Q 6.012451171875 0.882568359375 6.012451171875 0.8203125 L 6.012451171875 0.64306640625 Q 6.012451171875 0.580810546875 6.0106201171875 0.5343017578125 Q 6.0087890625 0.48779296875 6.0062255859375 0.4541015625 Q 6.003662109375 0.42041015625 5.9996337890625 0.397705078125 Q 5.99560546875 0.375 5.9912109375 0.359619140625 L 5.9912109375 0.356689453125 L 6.160400390625 0.356689453125 L 6.160400390625 0.359619140625 Q 6.154541015625 0.3779296875 6.1512451171875 0.4061279296875 Q 6.14794921875 0.434326171875 6.144287109375 0.479736328125 Q 6.17431640625 0.454833984375 6.2091064453125 0.429931640625 Q 6.243896484375 0.405029296875 6.28125 0.3856201171875 Q 6.318603515625 0.3662109375 6.357421875 0.3541259765625 Q 6.396240234375 0.342041015625 6.43359375 0.342041015625 Q 6.49072265625 0.342041015625 6.5306396484375 0.36181640625 Q 6.570556640625 0.381591796875 6.5958251953125 0.413818359375 Q 6.62109375 0.446044921875 6.6324462890625 0.4874267578125 Q 6.643798828125 0.52880859375 6.643798828125 0.5712890625 L 6.643798828125 0.8203125 Q 6.643798828125 0.882568359375 6.645263671875 0.9290771484375 Q 6.646728515625 0.9755859375 6.649658203125 1.00927734375 Q 6.652587890625 1.04296875 6.65625 1.065673828125 Q 6.659912109375 1.08837890625 6.664306640625 1.103759765625 L 6.664306640625 1.106689453125 L 6.4951171875 1.106689453125 L 6.4951171875 1.103759765625 Q 6.49951171875 1.08837890625 6.5035400390625 1.065673828125 Q 6.507568359375 1.04296875 6.5101318359375 1.00927734375 Q 6.5126953125 0.9755859375 6.5145263671875 0.9290771484375 Q 6.516357421875 0.882568359375 6.516357421875 0.8203125 L 6.516357421875 0.613037109375 M 6.867919921875 0.298095703125 Q 6.867919921875 0.23583984375 6.8660888671875 0.1893310546875 Q 6.8642578125 0.142822265625 6.8616943359375 0.109130859375 Q 6.859130859375 0.075439453125 6.8551025390625 0.052734375 Q 6.85107421875 0.030029296875 6.8466796875 0.0146484375 L 6.8466796875 0.01171875 L 7.015869140625 0.01171875 L 7.015869140625 0.0146484375 Q 7.011474609375 0.030029296875 7.0078125 0.052734375 Q 7.004150390625 0.075439453125 7.001220703125 0.109130859375 Q 6.998291015625 0.142822265625 6.996826171875 0.1893310546875 Q 6.995361328125 0.23583984375 6.995361328125 0.298095703125 L 6.995361328125 0.8203125 Q 6.995361328125 0.882568359375 6.996826171875 0.9290771484375 Q 6.998291015625 0.9755859375 7.001220703125 1.00927734375 Q 7.004150390625 1.04296875 7.0078125 1.065673828125 Q 7.011474609375 1.08837890625 7.015869140625 1.103759765625 L 7.015869140625 1.106689453125 L 6.8466796875 1.106689453125 L 6.8466796875 1.103759765625 Q 6.85107421875 1.08837890625 6.8551025390625 1.065673828125 Q 6.859130859375 1.04296875 6.8616943359375 1.00927734375 Q 6.8642578125 0.9755859375 6.8660888671875 0.9290771484375 Q 6.867919921875 0.882568359375 6.867919921875 0.8203125 L 6.867919921875 0.298095703125 M 7.166015625 0.890625 Q 7.166015625 0.832763671875 7.1898193359375 0.790283203125 Q 7.213623046875 0.747802734375 7.253173828125 0.7177734375 Q 7.292724609375 0.687744140625 7.34326171875 0.6690673828125 Q 7.393798828125 0.650390625 7.447998046875 0.6397705078125 Q 7.502197265625 0.629150390625 7.554931640625 0.6251220703125 Q 7.607666015625 0.62109375 7.651611328125 0.620361328125 L 7.651611328125 0.5830078125 Q 7.651611328125 0.53466796875 7.63916015625 0.49951171875 Q 7.626708984375 0.46435546875 7.60400390625 0.4412841796875 Q 7.581298828125 0.418212890625 7.5494384765625 0.4068603515625 Q 7.517578125 0.3955078125 7.4794921875 0.3955078125 Q 7.453125 0.3955078125 7.427490234375 0.39990234375 Q 7.40185546875 0.404296875 7.3743896484375 0.41455078125 Q 7.346923828125 0.4248046875 7.3165283203125 0.4423828125 Q 7.2861328125 0.4599609375 7.2509765625 0.487060546875 L 7.24365234375 0.482666015625 L 7.29345703125 0.37939453125 Q 7.317626953125 0.368408203125 7.341064453125 0.3614501953125 Q 7.364501953125 0.3544921875 7.388671875 0.35009765625 Q 7.412841796875 0.345703125 7.4381103515625 0.3438720703125 Q 7.46337890625 0.342041015625 7.4912109375 0.342041015625 Q 7.568115234375 0.342041015625 7.6226806640625 0.3607177734375 Q 7.67724609375 0.37939453125 7.7120361328125 0.4119873046875 Q 7.746826171875 0.444580078125 7.762939453125 0.4881591796875 Q 7.779052734375 0.53173828125 7.779052734375 0.58154296875 L 7.779052734375 0.8203125 Q 7.779052734375 0.882568359375 7.7808837890625 0.9290771484375 Q 7.78271484375 0.9755859375 7.7852783203125 1.00927734375 Q 7.787841796875 1.04296875 7.7918701171875 1.065673828125 Q 7.7958984375 1.08837890625 7.80029296875 1.103759765625 L 7.80029296875 1.106689453125 L 7.638427734375 1.106689453125 L 7.638427734375 1.103759765625 Q 7.64208984375 1.092041015625 7.6439208984375 1.077392578125 Q 7.645751953125 1.062744140625 7.647216796875 1.042236328125 Q 7.6318359375 1.055419921875 7.6109619140625 1.0693359375 Q 7.590087890625 1.083251953125 7.5633544921875 1.0946044921875 Q 7.53662109375 1.10595703125 7.5040283203125 1.1129150390625 Q 7.471435546875 1.119873046875 7.4326171875 1.119873046875 Q 7.30517578125 1.119873046875 7.235595703125 1.0601806640625 Q 7.166015625 1.00048828125 7.166015625 0.890625 M 7.651611328125 0.677490234375 Q 7.5849609375 0.67822265625 7.5234375 0.6851806640625 Q 7.4619140625 0.692138671875 7.4146728515625 0.714111328125 Q 7.367431640625 0.736083984375 7.3392333984375 0.7767333984375 Q 7.31103515625 0.8173828125 7.31103515625 0.884765625 Q 7.31103515625 0.97119140625 7.354248046875 1.0166015625 Q 7.3974609375 1.06201171875 7.4736328125 1.06201171875 Q 7.5087890625 1.06201171875 7.5377197265625 1.0521240234375 Q 7.566650390625 1.042236328125 7.5889892578125 1.0272216796875 Q 7.611328125 1.01220703125 7.626708984375 0.9942626953125 Q 7.64208984375 0.976318359375 7.650146484375 0.95947265625 Q 7.651611328125 0.931640625 7.651611328125 0.8975830078125 Q 7.651611328125 0.863525390625 7.651611328125 0.8203125 L 7.651611328125 0.677490234375 M 8.50341796875 0.613037109375 Q 8.50341796875 0.516357421875 8.464599609375 0.470947265625 Q 8.42578125 0.425537109375 8.360595703125 0.425537109375 Q 8.337158203125 0.425537109375 8.307861328125 0.4354248046875 Q 8.278564453125 0.4453125 8.247802734375 0.4617919921875 Q 8.217041015625 0.478271484375 8.186279296875 0.500244140625 Q 8.155517578125 0.522216796875 8.12841796875 0.547119140625 L 8.126953125 0.64306640625 L 8.126953125 0.8203125 Q 8.126953125 0.882568359375 8.12841796875 0.9290771484375 Q 8.1298828125 0.9755859375 8.1328125 1.00927734375 Q 8.1357421875 1.04296875 8.139404296875 1.065673828125 Q 8.14306640625 1.08837890625 8.1474609375 1.103759765625 L 8.1474609375 1.106689453125 L 7.978271484375 1.106689453125 L 7.978271484375 1.103759765625 Q 7.982666015625 1.08837890625 7.9866943359375 1.065673828125 Q 7.99072265625 1.04296875 7.9932861328125 1.00927734375 Q 7.995849609375 0.9755859375 7.9976806640625 0.9290771484375 Q 7.99951171875 0.882568359375 7.99951171875 0.8203125 L 7.99951171875 0.64306640625 Q 7.99951171875 0.580810546875 7.9976806640625 0.5343017578125 Q 7.995849609375 0.48779296875 7.9932861328125 0.4541015625 Q 7.99072265625 0.42041015625 7.9866943359375 0.397705078125 Q 7.982666015625 0.375 7.978271484375 0.359619140625 L 7.978271484375 0.356689453125 L 8.1474609375 0.356689453125 L 8.1474609375 0.359619140625 Q 8.1416015625 0.3779296875 8.1383056640625 0.4061279296875 Q 8.135009765625 0.434326171875 8.13134765625 0.479736328125 Q 8.161376953125 0.454833984375 8.1961669921875 0.429931640625 Q 8.23095703125 0.405029296875 8.268310546875 0.3856201171875 Q 8.3056640625 0.3662109375 8.344482421875 0.3541259765625 Q 8.38330078125 0.342041015625 8.420654296875 0.342041015625 Q 8.477783203125 0.342041015625 8.5177001953125 0.36181640625 Q 8.5576171875 0.381591796875 8.5828857421875 0.413818359375 Q 8.608154296875 0.446044921875 8.6195068359375 0.4874267578125 Q 8.630859375 0.52880859375 8.630859375 0.5712890625 L 8.630859375 0.8203125 Q 8.630859375 0.882568359375 8.63232421875 0.9290771484375 Q 8.6337890625 0.9755859375 8.63671875 1.00927734375 Q 8.6396484375 1.04296875 8.643310546875 1.065673828125 Q 8.64697265625 1.08837890625 8.6513671875 1.103759765625 L 8.6513671875 1.106689453125 L 8.482177734375 1.106689453125 L 8.482177734375 1.103759765625 Q 8.486572265625 1.08837890625 8.4906005859375 1.065673828125 Q 8.49462890625 1.04296875 8.4971923828125 1.00927734375 Q 8.499755859375 0.9755859375 8.5015869140625 0.9290771484375 Q 8.50341796875 0.882568359375 8.50341796875 0.8203125 L 8.50341796875 0.613037109375 M 9.1845703125 0.343505859375 Q 9.214599609375 0.343505859375 9.24462890625 0.3486328125 Q 9.274658203125 0.353759765625 9.30322265625 0.36328125 Q 9.331787109375 0.372802734375 9.357421875 0.38671875 Q 9.383056640625 0.400634765625 9.403564453125 0.418212890625 L 9.403564453125 0.298095703125 Q 9.403564453125 0.23583984375 9.402099609375 0.1893310546875 Q 9.400634765625 0.142822265625 9.397705078125 0.109130859375 Q 9.394775390625 0.075439453125 9.39111328125 0.052734375 Q 9.387451171875 0.030029296875 9.383056640625 0.0146484375 L 9.383056640625 0.01171875 L 9.55224609375 0.01171875 L 9.55224609375 0.0146484375 Q 9.5478515625 0.030029296875 9.5438232421875 0.052734375 Q 9.539794921875 0.075439453125 9.5372314453125 0.109130859375 Q 9.53466796875 0.142822265625 9.5328369140625 0.1893310546875 Q 9.531005859375 0.23583984375 9.531005859375 0.298095703125 L 9.531005859375 0.8203125 Q 9.531005859375 0.882568359375 9.5328369140625 0.9290771484375 Q 9.53466796875 0.9755859375 9.5372314453125 1.00927734375 Q 9.539794921875 1.04296875 9.5438232421875 1.065673828125 Q 9.5478515625 1.08837890625 9.55224609375 1.103759765625 L 9.55224609375 1.106689453125 L 9.390380859375 1.106689453125 L 9.390380859375 1.103759765625 Q 9.392578125 1.097900390625 9.39404296875 1.0865478515625 Q 9.3955078125 1.0751953125 9.397705078125 1.058349609375 Q 9.3603515625 1.081787109375 9.303955078125 1.100830078125 Q 9.24755859375 1.119873046875 9.1728515625 1.119873046875 Q 9.085693359375 1.119873046875 9.0146484375 1.0927734375 Q 8.943603515625 1.065673828125 8.8934326171875 1.01513671875 Q 8.84326171875 0.964599609375 8.816162109375 0.8924560546875 Q 8.7890625 0.8203125 8.7890625 0.730224609375 Q 8.7890625 0.6474609375 8.818359375 0.5767822265625 Q 8.84765625 0.506103515625 8.900390625 0.4541015625 Q 8.953125 0.402099609375 9.025634765625 0.372802734375 Q 9.09814453125 0.343505859375 9.1845703125 0.343505859375 M 9.403564453125 0.547119140625 Q 9.374267578125 0.47021484375 9.3197021484375 0.43359375 Q 9.26513671875 0.39697265625 9.197021484375 0.39697265625 Q 9.139892578125 0.39697265625 9.091552734375 0.4171142578125 Q 9.043212890625 0.437255859375 9.0087890625 0.475341796875 Q 8.974365234375 0.513427734375 8.9549560546875 0.5687255859375 Q 8.935546875 0.6240234375 8.935546875 0.6943359375 Q 8.935546875 0.7734375 8.953125 0.841552734375 Q 8.970703125 0.90966796875 9.0047607421875 0.9598388671875 Q 9.038818359375 1.010009765625 9.08935546875 1.0382080078125 Q 9.139892578125 1.06640625 9.205810546875 1.06640625 Q 9.240234375 1.06640625 9.270263671875 1.058349609375 Q 9.30029296875 1.05029296875 9.3251953125 1.037841796875 Q 9.35009765625 1.025390625 9.369140625 1.0103759765625 Q 9.38818359375 0.995361328125 9.400634765625 0.980712890625 Q 9.402099609375 0.94921875 9.40283203125 0.908935546875 Q 9.403564453125 0.86865234375 9.403564453125 0.8203125 L 9.403564453125 0.547119140625" fill="#434386" fill-rule="nonzero"></path></g><g><path d=" M 0.443125 1.8489711914062499 Q 0.379375 1.90897119140625 0.291875 1.90897119140625 Q 0.243125 1.90897119140625 0.205625 1.8920961914062497 Q 0.168125 1.8752211914062498 0.143125 1.8470961914062498 Q 0.11812500000000001 1.8189711914062499 0.1053125 1.7820961914062499 Q 0.0925 1.7452211914062499 0.0925 1.7052211914062498 Q 0.0925 1.6627211914062499 0.1059375 1.6274086914062498 Q 0.11937500000000001 1.5920961914062497 0.14375000000000002 1.56647119140625 Q 0.168125 1.54084619140625 0.2015625 1.5264711914062499 Q 0.23500000000000001 1.5120961914062498 0.274375 1.5120961914062498 Q 0.30125 1.5120961914062498 0.3234375 1.5183461914062497 Q 0.345625 1.5245961914062498 0.3628125 1.5345961914062498 Q 0.38 1.5445961914062498 0.3909375 1.5574086914062497 Q 0.401875 1.5702211914062498 0.40625 1.5833461914062499 L 0.4525 1.5833461914062499 Q 0.443125 1.56209619140625 0.4284375 1.54397119140625 Q 0.41375 1.5258461914062498 0.39187500000000003 1.51272119140625 Q 0.37 1.49959619140625 0.340625 1.4920961914062498 Q 0.31125 1.4845961914062498 0.27375 1.4845961914062498 Q 0.21937500000000001 1.4845961914062498 0.1746875 1.5002211914062498 Q 0.13 1.5158461914062498 0.098125 1.5449086914062498 Q 0.06625 1.5739711914062497 0.04875 1.6149086914062498 Q 0.03125 1.65584619140625 0.03125 1.7064711914062498 Q 0.03125 1.7502211914062498 0.0453125 1.7917836914062497 Q 0.059375000000000004 1.8333461914062499 0.08875 1.86553369140625 Q 0.11812500000000001 1.8977211914062497 0.16375 1.9174086914062498 Q 0.209375 1.93709619140625 0.2725 1.93709619140625 Q 0.3125 1.93709619140625 0.3440625 1.9295961914062498 Q 0.375625 1.9220961914062498 0.3990625 1.9111586914062497 Q 0.4225 1.90022119140625 0.438125 1.8877211914062497 Q 0.45375 1.8752211914062498 0.46187500000000004 1.8658461914062499 L 0.443125 1.8489711914062499 M 0.6393576049804688 1.6102211914062499 Q 0.6849826049804688 1.6102211914062499 0.7099826049804687 1.6230336914062498 Q 0.7349826049804687 1.6358461914062499 0.7465451049804688 1.6564711914062498 Q 0.7581076049804687 1.6770961914062499 0.7599826049804688 1.7039711914062499 Q 0.7618576049804688 1.7308461914062498 0.7618576049804688 1.7589711914062498 L 0.7618576049804688 1.9295961914062498 L 0.7112326049804687 1.9295961914062498 L 0.7112326049804687 1.89897119140625 Q 0.6931076049804688 1.9164711914062498 0.6649826049804688 1.9267836914062497 Q 0.6368576049804687 1.93709619140625 0.6087326049804688 1.93709619140625 Q 0.5818576049804688 1.93709619140625 0.5612326049804688 1.9277211914062498 Q 0.5406076049804688 1.9183461914062498 0.5268576049804687 1.9033461914062497 Q 0.5131076049804687 1.8883461914062498 0.5062326049804687 1.8695961914062498 Q 0.49935760498046877 1.8508461914062497 0.49935760498046877 1.8314711914062498 Q 0.49935760498046877 1.8114711914062498 0.5068576049804687 1.7914711914062498 Q 0.5143576049804688 1.7714711914062498 0.5293576049804688 1.7555336914062498 Q 0.5443576049804688 1.7395961914062499 0.5662326049804688 1.7295961914062499 Q 0.5881076049804688 1.7195961914062499 0.6162326049804687 1.7195961914062499 Q 0.6443576049804688 1.7195961914062499 0.6696701049804688 1.73053369140625 Q 0.6949826049804688 1.7414711914062497 0.7112326049804687 1.7614711914062497 L 0.7112326049804687 1.7345961914062498 Q 0.7112326049804687 1.6833461914062497 0.6959201049804687 1.6583461914062498 Q 0.6806076049804688 1.63334619140625 0.6399826049804688 1.63334619140625 Q 0.6224826049804688 1.63334619140625 0.6093576049804688 1.63772119140625 Q 0.5962326049804687 1.6420961914062497 0.5859201049804688 1.6499086914062497 Q 0.5756076049804688 1.6577211914062497 0.5668576049804688 1.6692836914062499 Q 0.5581076049804687 1.6808461914062498 0.5493576049804687 1.6952211914062498 L 0.5168576049804687 1.6627211914062499 Q 0.5256076049804688 1.65334619140625 0.5352951049804687 1.6439711914062498 Q 0.5449826049804688 1.63459619140625 0.5590451049804688 1.6270961914062498 Q 0.5731076049804688 1.6195961914062498 0.5924826049804688 1.6149086914062498 Q 0.6118576049804687 1.6102211914062499 0.6393576049804688 1.6102211914062499 M 0.7112326049804687 1.8058461914062498 Q 0.7081076049804688 1.7983461914062497 0.7021701049804687 1.7883461914062497 Q 0.6962326049804688 1.77834619140625 0.6868576049804688 1.7689711914062498 Q 0.6774826049804688 1.75959619140625 0.6643576049804687 1.7530336914062499 Q 0.6512326049804688 1.7464711914062498 0.6331076049804687 1.7464711914062498 Q 0.6149826049804688 1.7464711914062498 0.5999826049804687 1.7536586914062497 Q 0.5849826049804687 1.7608461914062499 0.5746701049804688 1.7724086914062498 Q 0.5643576049804687 1.7839711914062497 0.5587326049804687 1.7995961914062497 Q 0.5531076049804687 1.8152211914062497 0.5531076049804687 1.83209619140625 Q 0.5531076049804687 1.85209619140625 0.5602951049804688 1.86678369140625 Q 0.5674826049804688 1.8814711914062499 0.5787326049804687 1.8917836914062498 Q 0.5899826049804687 1.9020961914062497 0.6037326049804688 1.9070961914062499 Q 0.6174826049804687 1.9120961914062498 0.6299826049804688 1.9120961914062498 Q 0.6418576049804687 1.9120961914062498 0.6540451049804688 1.9077211914062497 Q 0.6662326049804688 1.9033461914062497 0.6771701049804688 1.8955336914062497 Q 0.6881076049804687 1.8877211914062497 0.6968576049804688 1.8770961914062498 Q 0.7056076049804687 1.8664711914062497 0.7112326049804687 1.8539711914062498 L 0.7112326049804687 1.8058461914062498 M 1.0612188720703126 1.6883461914062499 Q 1.0612188720703126 1.67147119140625 1.0524688720703126 1.6570961914062499 Q 1.0437188720703126 1.6427211914062498 1.0284063720703125 1.63240869140625 Q 1.0130938720703124 1.62209619140625 0.9927813720703125 1.6161586914062498 Q 0.9724688720703125 1.6102211914062499 0.9493438720703125 1.6102211914062499 Q 0.9274688720703125 1.6102211914062499 0.9084063720703125 1.6158461914062499 Q 0.8893438720703125 1.6214711914062498 0.8752813720703125 1.6327211914062498 Q 0.8612188720703124 1.6439711914062498 0.8530938720703125 1.6605336914062498 Q 0.8449688720703125 1.6770961914062499 0.8449688720703125 1.6989711914062497 Q 0.8449688720703125 1.7289711914062498 0.8587188720703125 1.7464711914062498 Q 0.8724688720703125 1.76397119140625 0.8930938720703125 1.7745961914062498 Q 0.9137188720703125 1.78522119140625 0.9377813720703125 1.7917836914062497 Q 0.9618438720703125 1.7983461914062497 0.9824688720703125 1.8061586914062497 Q 1.0030938720703124 1.8139711914062497 1.0168438720703126 1.8258461914062498 Q 1.0305938720703125 1.83772119140625 1.0305938720703125 1.8583461914062498 Q 1.0305938720703125 1.8670961914062498 1.0277813720703124 1.8764711914062497 Q 1.0249688720703125 1.8858461914062499 1.0174688720703124 1.8936586914062499 Q 1.0099688720703126 1.9014711914062499 0.9968438720703126 1.90678369140625 Q 0.9837188720703125 1.9120961914062498 0.9637188720703125 1.9120961914062498 Q 0.9387188720703126 1.9120961914062498 0.9215313720703125 1.9042836914062498 Q 0.9043438720703125 1.8964711914062498 0.8934063720703125 1.88553369140625 Q 0.8824688720703125 1.87459619140625 0.8777813720703125 1.86334619140625 Q 0.8730938720703125 1.85209619140625 0.8730938720703125 1.8445961914062499 L 0.8324688720703125 1.8445961914062499 Q 0.8324688720703125 1.8620961914062497 0.8405938720703126 1.8786586914062497 Q 0.8487188720703125 1.8952211914062498 0.8652813720703125 1.9083461914062498 Q 0.8818438720703126 1.92147119140625 0.9059063720703125 1.92928369140625 Q 0.9299688720703125 1.93709619140625 0.9618438720703125 1.93709619140625 Q 1.0193438720703125 1.93709619140625 1.0484063720703125 1.9117836914062498 Q 1.0774688720703125 1.8864711914062497 1.0774688720703125 1.8452211914062497 Q 1.0774688720703125 1.8152211914062497 1.0634063720703124 1.7970961914062498 Q 1.0493438720703125 1.7789711914062498 1.0280938720703126 1.7680336914062498 Q 1.0068438720703126 1.7570961914062497 0.9821563720703125 1.7502211914062498 Q 0.9574688720703125 1.7433461914062498 0.9362188720703125 1.7358461914062497 Q 0.9149688720703125 1.72834619140625 0.9009063720703125 1.7177211914062498 Q 0.8868438720703125 1.70709619140625 0.8868438720703125 1.6877211914062498 Q 0.8868438720703125 1.6795961914062498 0.8899688720703125 1.6705336914062499 Q 0.8930938720703125 1.6614711914062499 0.9005938720703125 1.6536586914062499 Q 0.9080938720703124 1.6458461914062499 0.9205938720703125 1.6405336914062498 Q 0.9330938720703125 1.6352211914062498 0.9518438720703125 1.6352211914062498 Q 0.9705938720703124 1.6352211914062498 0.9843438720703125 1.6405336914062498 Q 0.9980938720703125 1.6458461914062499 1.0074688720703124 1.6536586914062499 Q 1.0168438720703126 1.6614711914062499 1.0212188720703126 1.6708461914062498 Q 1.0255938720703126 1.68022119140625 1.0255938720703126 1.6883461914062499 L 1.0612188720703126 1.6883461914062499 M 1.1818316650390626 1.6170961914062498 L 1.1818316650390626 1.9295961914062498 L 1.2349566650390624 1.9295961914062498 L 1.2349566650390624 1.6170961914062498 L 1.1818316650390626 1.6170961914062498 M 1.1743316650390625 1.5183461914062497 Q 1.1743316650390625 1.5320961914062499 1.1843316650390625 1.5420961914062499 Q 1.1943316650390625 1.5520961914062499 1.2080816650390624 1.5520961914062499 Q 1.2218316650390626 1.5520961914062499 1.2318316650390626 1.5420961914062499 Q 1.2418316650390624 1.5320961914062499 1.2418316650390624 1.5183461914062497 Q 1.2418316650390624 1.5045961914062498 1.2318316650390626 1.4945961914062498 Q 1.2218316650390626 1.4845961914062498 1.2080816650390624 1.4845961914062498 Q 1.1943316650390625 1.4845961914062498 1.1843316650390625 1.4945961914062498 Q 1.1743316650390625 1.5045961914062498 1.1743316650390625 1.5183461914062497 M 1.6155712890625 1.9295961914062498 L 1.6155712890625 1.72709619140625 Q 1.6155712890625 1.71584619140625 1.6136962890625 1.6961586914062499 Q 1.6118212890625 1.6764711914062498 1.6015087890625 1.6574086914062498 Q 1.5911962890625 1.6383461914062498 1.5686962890625 1.6242836914062497 Q 1.5461962890625 1.6102211914062499 1.5049462890625 1.6102211914062499 Q 1.4868212890625 1.6095961914062498 1.4643212890625 1.6174086914062498 Q 1.4418212890625 1.6252211914062498 1.4199462890625 1.6470961914062499 L 1.4099462890625 1.6570961914062499 L 1.4074462890625 1.6570961914062499 L 1.4074462890625 1.6170961914062498 L 1.3543212890625 1.6170961914062498 L 1.3543212890625 1.9295961914062498 L 1.4074462890625 1.9295961914062498 L 1.4074462890625 1.7364711914062498 Q 1.4074462890625 1.7120961914062498 1.4143212890625 1.6945961914062497 Q 1.4211962890625 1.6770961914062499 1.4330712890625 1.6652211914062498 Q 1.4449462890625 1.65334619140625 1.4602587890625 1.6477211914062497 Q 1.4755712890625001 1.6420961914062497 1.4918212890625 1.6420961914062497 Q 1.5180712890625 1.6420961914062497 1.5324462890625 1.65240869140625 Q 1.5468212890625 1.6627211914062499 1.5533837890625 1.6764711914062498 Q 1.5599462890625 1.6902211914062497 1.5611962890625 1.7039711914062499 Q 1.5624462890625 1.7177211914062498 1.5624462890625 1.7239711914062499 L 1.5624462890625 1.9295961914062498 L 1.6155712890625 1.9295961914062498 M 2.0224423217773437 1.77397119140625 Q 2.0224423217773437 1.80647119140625 2.0111923217773438 1.8361586914062498 Q 1.9999423217773438 1.8658461914062499 1.9790048217773437 1.8883461914062498 Q 1.9580673217773437 1.9108461914062498 1.9283798217773438 1.9239711914062498 Q 1.8986923217773437 1.93709619140625 1.8618173217773437 1.93709619140625 Q 1.8243173217773438 1.93709619140625 1.7940048217773437 1.92365869140625 Q 1.7636923217773437 1.91022119140625 1.7427548217773436 1.8877211914062497 Q 1.7218173217773438 1.8652211914062498 1.7102548217773437 1.83553369140625 Q 1.6986923217773438 1.8058461914062498 1.6986923217773438 1.77397119140625 Q 1.6986923217773438 1.7414711914062497 1.7102548217773437 1.7117836914062499 Q 1.7218173217773438 1.6820961914062498 1.7427548217773436 1.6595961914062498 Q 1.7636923217773437 1.6370961914062498 1.7940048217773437 1.6236586914062499 Q 1.8243173217773438 1.6102211914062499 1.8618173217773437 1.6102211914062499 Q 1.8986923217773437 1.6102211914062499 1.9283798217773438 1.6236586914062499 Q 1.9580673217773437 1.6370961914062498 1.9790048217773437 1.6595961914062498 Q 1.9999423217773438 1.6820961914062498 2.0111923217773438 1.7117836914062499 Q 2.0224423217773437 1.7414711914062497 2.0224423217773437 1.77397119140625 M 1.9630673217773438 1.77397119140625 Q 1.9630673217773438 1.7302211914062497 1.9536923217773436 1.7030336914062498 Q 1.9443173217773437 1.67584619140625 1.9293173217773438 1.6608461914062498 Q 1.9143173217773437 1.6458461914062499 1.8961923217773438 1.6405336914062498 Q 1.8780673217773438 1.6352211914062498 1.8611923217773438 1.6352211914062498 Q 1.8443173217773436 1.6352211914062498 1.8261923217773437 1.6405336914062498 Q 1.8080673217773438 1.6458461914062499 1.7927548217773437 1.6608461914062498 Q 1.7774423217773438 1.67584619140625 1.7677548217773438 1.7030336914062498 Q 1.7580673217773437 1.7302211914062497 1.7580673217773437 1.77397119140625 Q 1.7580673217773437 1.8170961914062498 1.7677548217773438 1.84428369140625 Q 1.7774423217773438 1.8714711914062498 1.7927548217773437 1.8864711914062497 Q 1.8080673217773438 1.9014711914062499 1.8261923217773437 1.90678369140625 Q 1.8443173217773436 1.9120961914062498 1.8611923217773438 1.9120961914062498 Q 1.8780673217773438 1.9120961914062498 1.8961923217773438 1.90678369140625 Q 1.9143173217773437 1.9014711914062499 1.9293173217773438 1.8864711914062497 Q 1.9443173217773437 1.8714711914062498 1.9536923217773436 1.84428369140625 Q 1.9630673217773438 1.8170961914062498 1.9630673217773438 1.77397119140625 M 2.4042901611328125 1.7120961914062498 L 2.6661651611328123 1.7120961914062498 L 2.6661651611328123 1.9295961914062498 L 2.7230401611328126 1.9295961914062498 L 2.7230401611328126 1.4920961914062498 L 2.6661651611328123 1.4920961914062498 L 2.6661651611328123 1.6833461914062497 L 2.4042901611328125 1.6833461914062497 L 2.4042901611328125 1.4920961914062498 L 2.3474151611328127 1.4920961914062498 L 2.3474151611328127 1.9295961914062498 L 2.4042901611328125 1.9295961914062498 L 2.4042901611328125 1.7120961914062498 M 3.1530422973632812 1.77397119140625 Q 3.1530422973632812 1.80647119140625 3.1417922973632812 1.8361586914062498 Q 3.1305422973632813 1.8658461914062499 3.109604797363281 1.8883461914062498 Q 3.088667297363281 1.9108461914062498 3.058979797363281 1.9239711914062498 Q 3.0292922973632814 1.93709619140625 2.992417297363281 1.93709619140625 Q 2.954917297363281 1.93709619140625 2.924604797363281 1.92365869140625 Q 2.894292297363281 1.91022119140625 2.873354797363281 1.8877211914062497 Q 2.852417297363281 1.8652211914062498 2.8408547973632814 1.83553369140625 Q 2.8292922973632812 1.8058461914062498 2.8292922973632812 1.77397119140625 Q 2.8292922973632812 1.7414711914062497 2.8408547973632814 1.7117836914062499 Q 2.852417297363281 1.6820961914062498 2.873354797363281 1.6595961914062498 Q 2.894292297363281 1.6370961914062498 2.924604797363281 1.6236586914062499 Q 2.954917297363281 1.6102211914062499 2.992417297363281 1.6102211914062499 Q 3.0292922973632814 1.6102211914062499 3.058979797363281 1.6236586914062499 Q 3.088667297363281 1.6370961914062498 3.109604797363281 1.6595961914062498 Q 3.1305422973632813 1.6820961914062498 3.1417922973632812 1.7117836914062499 Q 3.1530422973632812 1.7414711914062497 3.1530422973632812 1.77397119140625 M 3.0936672973632815 1.77397119140625 Q 3.0936672973632815 1.7302211914062497 3.084292297363281 1.7030336914062498 Q 3.0749172973632812 1.67584619140625 3.059917297363281 1.6608461914062498 Q 3.0449172973632814 1.6458461914062499 3.026792297363281 1.6405336914062498 Q 3.008667297363281 1.6352211914062498 2.9917922973632813 1.6352211914062498 Q 2.974917297363281 1.6352211914062498 2.956792297363281 1.6405336914062498 Q 2.9386672973632812 1.6458461914062499 2.9233547973632814 1.6608461914062498 Q 2.908042297363281 1.67584619140625 2.898354797363281 1.7030336914062498 Q 2.8886672973632814 1.7302211914062497 2.8886672973632814 1.77397119140625 Q 2.8886672973632814 1.8170961914062498 2.898354797363281 1.84428369140625 Q 2.908042297363281 1.8714711914062498 2.9233547973632814 1.8864711914062497 Q 2.9386672973632812 1.9014711914062499 2.956792297363281 1.90678369140625 Q 2.974917297363281 1.9120961914062498 2.9917922973632813 1.9120961914062498 Q 3.008667297363281 1.9120961914062498 3.026792297363281 1.90678369140625 Q 3.0449172973632814 1.9014711914062499 3.059917297363281 1.8864711914062497 Q 3.0749172973632812 1.8714711914062498 3.084292297363281 1.84428369140625 Q 3.0936672973632815 1.8170961914062498 3.0936672973632815 1.77397119140625 M 3.2030303955078123 1.6420961914062497 L 3.2030303955078123 1.6170961914062498 L 3.2574053955078126 1.6170961914062498 L 3.2574053955078126 1.5208461914062499 L 3.3105303955078127 1.5208461914062499 L 3.3105303955078127 1.6170961914062498 L 3.3861553955078123 1.6170961914062498 L 3.3861553955078123 1.6420961914062497 L 3.3105303955078127 1.6420961914062497 L 3.3105303955078127 1.8495961914062498 Q 3.3105303955078127 1.8570961914062498 3.3111553955078126 1.86678369140625 Q 3.3117803955078124 1.8764711914062497 3.3149053955078127 1.8849086914062498 Q 3.3180303955078125 1.89334619140625 3.3245928955078123 1.89897119140625 Q 3.3311553955078126 1.90459619140625 3.3430303955078124 1.90459619140625 Q 3.3580303955078126 1.90459619140625 3.3680303955078124 1.89334619140625 Q 3.3780303955078126 1.8820961914062497 3.3842803955078127 1.86897119140625 L 3.4136553955078126 1.89897119140625 Q 3.3830303955078125 1.9295961914062498 3.3442803955078126 1.9295961914062498 Q 3.3280303955078123 1.9295961914062498 3.3124053955078123 1.9239711914062498 Q 3.2967803955078123 1.9183461914062498 3.2845928955078123 1.90678369140625 Q 3.2724053955078123 1.8952211914062498 3.2649053955078124 1.8770961914062498 Q 3.2574053955078126 1.85897119140625 3.2574053955078126 1.8345961914062499 L 3.2574053955078126 1.6420961914062497 L 3.2030303955078123 1.6420961914062497 M 3.7461553955078126 1.7870961914062498 L 3.7461553955078126 1.77397119140625 Q 3.7461553955078126 1.7320961914062498 3.7342803955078123 1.70147119140625 Q 3.7224053955078125 1.6708461914062498 3.7020928955078123 1.6508461914062498 Q 3.6817803955078126 1.6308461914062498 3.6549053955078126 1.6208461914062497 Q 3.6280303955078126 1.6108461914062497 3.5980303955078123 1.6108461914062497 Q 3.5661553955078125 1.6108461914062497 3.5392803955078125 1.6217836914062498 Q 3.5124053955078125 1.6327211914062498 3.4924053955078125 1.6536586914062499 Q 3.4724053955078125 1.6745961914062497 3.4611553955078125 1.7042836914062498 Q 3.4499053955078125 1.73397119140625 3.4499053955078125 1.7714711914062498 Q 3.4499053955078125 1.8027211914062498 3.4595928955078126 1.8324086914062498 Q 3.4692803955078126 1.8620961914062497 3.4889678955078125 1.88553369140625 Q 3.5086553955078124 1.90897119140625 3.5389678955078123 1.9230336914062498 Q 3.5692803955078123 1.93709619140625 3.6105303955078125 1.93709619140625 Q 3.6505303955078126 1.93709619140625 3.6842803955078125 1.9230336914062498 Q 3.7180303955078124 1.90897119140625 3.7430303955078124 1.8827211914062498 L 3.7230303955078123 1.8627211914062498 Q 3.7099053955078123 1.8739711914062498 3.6983428955078126 1.88334619140625 Q 3.6867803955078124 1.8927211914062498 3.6749053955078126 1.89897119140625 Q 3.6630303955078123 1.9052211914062498 3.6502178955078124 1.9086586914062498 Q 3.6374053955078125 1.9120961914062498 3.6217803955078125 1.9120961914062498 Q 3.6042803955078124 1.9120961914062498 3.5845928955078126 1.90678369140625 Q 3.5649053955078127 1.9014711914062499 3.5480303955078125 1.8877211914062497 Q 3.5311553955078123 1.8739711914062498 3.5199053955078123 1.8495961914062498 Q 3.5086553955078124 1.82522119140625 3.5086553955078124 1.7870961914062498 L 3.7461553955078126 1.7870961914062498 M 3.5086553955078124 1.7620961914062498 Q 3.5086553955078124 1.7370961914062497 3.5139678955078124 1.7136586914062497 Q 3.5192803955078125 1.6902211914062497 3.5302178955078123 1.6720961914062498 Q 3.5411553955078126 1.6539711914062498 3.5580303955078123 1.6430336914062498 Q 3.5749053955078125 1.6320961914062497 3.5980303955078123 1.6320961914062497 Q 3.6424053955078124 1.6320961914062497 3.6670928955078126 1.6667836914062497 Q 3.6917803955078123 1.70147119140625 3.6917803955078123 1.7620961914062498 L 3.5086553955078124 1.7620961914062498 M 3.8930145263671876 1.4920961914062498 L 3.8398895263671875 1.4920961914062498 L 3.8398895263671875 1.9295961914062498 L 3.8930145263671876 1.9295961914062498 L 3.8930145263671876 1.4920961914062498 M 4.0192477416992185 1.6070961914062498 L 3.992997741699219 1.6070961914062498 L 3.9742477416992186 1.46272119140625 L 4.036747741699219 1.46272119140625 L 4.0192477416992185 1.6070961914062498 M 4.30485595703125 1.6883461914062499 Q 4.30485595703125 1.67147119140625 4.29610595703125 1.6570961914062499 Q 4.28735595703125 1.6427211914062498 4.27204345703125 1.63240869140625 Q 4.25673095703125 1.62209619140625 4.23641845703125 1.6161586914062498 Q 4.21610595703125 1.6102211914062499 4.19298095703125 1.6102211914062499 Q 4.17110595703125 1.6102211914062499 4.15204345703125 1.6158461914062499 Q 4.13298095703125 1.6214711914062498 4.11891845703125 1.6327211914062498 Q 4.10485595703125 1.6439711914062498 4.09673095703125 1.6605336914062498 Q 4.08860595703125 1.6770961914062499 4.08860595703125 1.6989711914062497 Q 4.08860595703125 1.7289711914062498 4.10235595703125 1.7464711914062498 Q 4.11610595703125 1.76397119140625 4.13673095703125 1.7745961914062498 Q 4.15735595703125 1.78522119140625 4.18141845703125 1.7917836914062497 Q 4.20548095703125 1.7983461914062497 4.22610595703125 1.8061586914062497 Q 4.24673095703125 1.8139711914062497 4.26048095703125 1.8258461914062498 Q 4.27423095703125 1.83772119140625 4.27423095703125 1.8583461914062498 Q 4.27423095703125 1.8670961914062498 4.27141845703125 1.8764711914062497 Q 4.26860595703125 1.8858461914062499 4.26110595703125 1.8936586914062499 Q 4.25360595703125 1.9014711914062499 4.24048095703125 1.90678369140625 Q 4.22735595703125 1.9120961914062498 4.20735595703125 1.9120961914062498 Q 4.18235595703125 1.9120961914062498 4.16516845703125 1.9042836914062498 Q 4.14798095703125 1.8964711914062498 4.13704345703125 1.88553369140625 Q 4.12610595703125 1.87459619140625 4.12141845703125 1.86334619140625 Q 4.11673095703125 1.85209619140625 4.11673095703125 1.8445961914062499 L 4.07610595703125 1.8445961914062499 Q 4.07610595703125 1.8620961914062497 4.08423095703125 1.8786586914062497 Q 4.09235595703125 1.8952211914062498 4.10891845703125 1.9083461914062498 Q 4.12548095703125 1.92147119140625 4.14954345703125 1.92928369140625 Q 4.17360595703125 1.93709619140625 4.20548095703125 1.93709619140625 Q 4.26298095703125 1.93709619140625 4.29204345703125 1.9117836914062498 Q 4.32110595703125 1.8864711914062497 4.32110595703125 1.8452211914062497 Q 4.32110595703125 1.8152211914062497 4.30704345703125 1.7970961914062498 Q 4.29298095703125 1.7789711914062498 4.27173095703125 1.7680336914062498 Q 4.25048095703125 1.7570961914062497 4.22579345703125 1.7502211914062498 Q 4.20110595703125 1.7433461914062498 4.17985595703125 1.7358461914062497 Q 4.15860595703125 1.72834619140625 4.14454345703125 1.7177211914062498 Q 4.13048095703125 1.70709619140625 4.13048095703125 1.6877211914062498 Q 4.13048095703125 1.6795961914062498 4.13360595703125 1.6705336914062499 Q 4.13673095703125 1.6614711914062499 4.14423095703125 1.6536586914062499 Q 4.15173095703125 1.6458461914062499 4.16423095703125 1.6405336914062498 Q 4.17673095703125 1.6352211914062498 4.19548095703125 1.6352211914062498 Q 4.21423095703125 1.6352211914062498 4.22798095703125 1.6405336914062498 Q 4.24173095703125 1.6458461914062499 4.25110595703125 1.6536586914062499 Q 4.26048095703125 1.6614711914062499 4.26485595703125 1.6708461914062498 Q 4.26923095703125 1.68022119140625 4.26923095703125 1.6883461914062499 L 4.30485595703125 1.6883461914062499" fill="#434386" fill-rule="nonzero"></path></g><g clip-path="url(#SvgjsClipPath1030)"><g clip-path="url(#bbcd614d8-e148-47ea-a185-540166341d763da22b9f-d79d-4771-b613-c973d4905436)"><path d=" M 5.20919546170363 -4.641940756410608 L 5.20919546170363 -4.776648081124932 L 5.203153364950824 -4.781851967923593 C 5.202385005826189 -4.782550476218716 5.168577204342272 -4.811363943392508 5.101241004692488 -4.848384883033987 L 5.101241004692488 -4.933812447527437 L 5.093522488031387 -4.938981408911341 C 5.091287261486996 -4.9405879779901225 4.859731761653973 -5.095971148240065 4.382720446914994 -5.095936222825309 C 3.95030888681957 -5.096040999069578 3.7707573295583976 -4.980193398323554 3.738870425886067 -4.95668859419269 L 3.08855920312726 -4.95668859419269 C 3.056707224869686 -4.980193398323554 2.8771207421937572 -5.096040999069578 2.4447091820983338 -5.095936222825309 C 1.9676978673593541 -5.095971148240065 1.7361074421115752 -4.9405879779901225 1.733872215567184 -4.938981408911341 L 1.7261886243208393 -4.933777522112681 L 1.7261886243208393 -4.848384883033987 C 1.6588524246710556 -4.811363943392508 1.6250446231871385 -4.782550476218716 1.6243111894772606 -4.781851967923593 L 1.6182341673096967 -4.776648081124932 L 1.6182341673096967 -4.641940756410608 L 1.7349199780098672 -4.6087965378070574 L 1.7349199780098672 -4.538142423755443 L 1.735688337134502 -4.537828095022638 L 1.7353041575721846 -4.537513766289833 L 1.7399492377347474 -4.536081824284833 L 1.7420098372053576 -4.5352086889159295 L 1.7420098372053576 -4.534649882279831 L 1.742638494670968 -4.534964211012637 L 1.7498331301107273 -4.531960625343611 L 1.7506014892353619 -4.532728984468245 L 1.786888995166962 -4.521343299257753 L 1.786888995166962 -0.32826785446844653 L 5.035965404513314 -0.32826785446844653 L 5.035965404513314 -4.524661213659583 L 5.076443960215649 -4.533148089445319 L 5.0775964989026 -4.531960625343611 L 5.092474725588704 -4.538142423755443 L 5.092474725588704 -4.6087965378070574 Z" fill="#c4c4e8" transform="matrix(1,0,0,1,0,0)" fill-rule="nonzero"></path></g><g clip-path="url(#bbcd614d8-e148-47ea-a185-540166341d763da22b9f-d79d-4771-b613-c973d4905436)"><path d=" M 0.09604489057930826 -0.3460448905793081 L 0 -0.25 L 6.819187231130886 -0.25 L 6.723142340551578 -0.3460448905793081 Z" fill="#434386" transform="matrix(1,0,0,1,0,0)" fill-rule="nonzero"></path></g><g clip-path="url(#bbcd614d8-e148-47ea-a185-540166341d763da22b9f-d79d-4771-b613-c973d4905436)"><path d=" M 5.203153364950825 -4.781886893338349 C 5.202419931240946 -4.782550476218715 5.1686121297570295 -4.811398868807263 5.101241004692489 -4.848419808448742 L 5.101241004692489 -4.933847372942193 L 5.0935574134461445 -4.939016334326097 C 5.0913221869017535 -4.940622903404878 4.859731761653975 -5.095971148240065 4.382720446914995 -5.095971148240065 C 3.9503088868195713 -5.096040999069577 3.770757329558399 -4.980228323738309 3.7389053513008244 -4.9566885941926895 L 3.0885941285420175 -4.9566885941926895 C 3.0567072248696876 -4.980228323738309 2.877120742193759 -5.096040999069577 2.4447091820983355 -5.095971148240065 C 1.9676978673593564 -5.095971148240065 1.7361423675263332 -4.940622903404878 1.733907140981942 -4.939016334326097 L 1.726188624320841 -4.933812447527436 L 1.726188624320841 -4.848419808448742 C 1.6588524246710568 -4.811398868807263 1.6250795486018965 -4.782550476218715 1.6243111894772617 -4.781886893338349 L 1.6182341673096978 -4.776683006539688 L 1.6182341673096978 -4.641975681825364 L 1.7349549034246246 -4.6087965378070574 L 1.7349549034246246 -4.538177349170199 L 1.735688337134503 -4.537863020437394 L 1.7353041575721857 -4.537548691704589 L 1.7399492377347485 -4.536081824284832 L 1.7420447626201156 -4.535243614330685 L 1.7420098372053594 -4.534684807694587 L 1.7426384946709692 -4.534964211012636 L 1.7498680555254846 -4.531995550758367 L 1.7506014892353625 -4.532763909883001 L 1.7868889951669633 -4.5213782246725085 L 1.7868889951669633 -0.32826785446844653 L 5.035965404513315 -0.32826785446844653 L 5.035965404513315 -4.524661213659583 L 5.0764439602156495 -4.533148089445318 L 5.077596498902601 -4.531995550758367 L 5.092509651003461 -4.538177349170199 L 5.092509651003461 -4.608831463221813 L 5.209195461703631 -4.641975681825364 L 5.209195461703631 -4.776683006539688 Z M 4.854807278173363 -2.3739890983929564 L 4.911002270515946 -2.3962365875926 L 4.911002270515946 -1.5951872747464133 C 4.896927328369234 -1.5965493659219017 4.8558899660308015 -1.59791145709739 4.852327573725678 -1.5992386228581221 L 4.852327573725678 -2.3735699934158836 C 4.852781604117508 -2.3733255155125903 4.854807278173363 -2.373989098392957 4.854807278173363 -2.373989098392957 M 4.852327573725678 -2.5532961777508363 L 4.852327573725678 -3.306357970722125 C 4.853235634509337 -3.305938865745052 4.854632651099582 -3.3060785674040765 4.854632651099582 -3.3060785674040765 L 4.9096401793404585 -3.325008142201889 L 4.9096401793404585 -2.5450887052831503 C 4.8825380574897155 -2.547812887634127 4.859522209165437 -2.5505719953998596 4.852327573725678 -2.5532961777508363 M 4.002627158124227 -4.25510686257191 C 4.032418536911191 -4.267784788128379 4.078520084389259 -4.285212570091679 4.135134181708917 -4.299951095118758 L 4.135134181708917 -3.549334081180397 C 4.104609369212075 -3.5441651197964923 4.03709854248851 -3.5314522688252676 4.002627158124227 -3.5198570311262385 Z M 2.9222094526438998 -4.253535218907885 L 2.9222094526438998 -3.4949901358198865 C 2.881556269867785 -3.499111334761108 2.8776446234151005 -3.503232533702329 2.866887595670218 -3.5073537326435504 L 2.866887595670218 -4.239180873443123 L 2.8689831205555847 -4.238133111000439 Z M 2.017187180068767 -4.25510686257191 C 2.046943633440975 -4.267784788128379 2.0930801063337987 -4.285212570091679 2.1496592782387003 -4.299951095118758 L 2.1496592782387003 -3.549334081180397 C 2.119134465741859 -3.5441651197964923 2.0516236390182936 -3.5314522688252676 2.017187180068767 -3.5198570311262385 Z M 2.451170383828216 -4.731175191112475 C 2.446001422444312 -4.7312101165272304 2.440937237304675 -4.731314892771499 2.435733350506015 -4.731314892771499 C 2.4156861624360064 -4.731314892771499 2.396093004757827 -4.730825936964913 2.376779250397697 -4.730092503255035 L 2.376779250397697 -4.793412280207866 C 2.3988521125235605 -4.794215564747256 2.4214488558707647 -4.794704520553842 2.4447091820983355 -4.794704520553842 L 2.451170383828216 -4.79463466972433 Z M 2.4853972902892063 -4.730546533646864 L 2.4853972902892063 -4.794285415576769 C 2.5102120314154885 -4.7937660157344535 2.535013983359403 -4.792752978260689 2.5597884237197195 -4.791246904492987 L 2.5597884237197195 -4.726774588853204 C 2.5350221711441736 -4.728579400136436 2.5102190791692145 -4.729837021701364 2.4853972902892147 -4.730546533646863 M 2.5940153301807145 -4.7239107048432025 L 2.5940153301807145 -4.788802125460059 C 2.618870940617055 -4.786799667738512 2.643675082650722 -4.784202802164096 2.6684064636112392 -4.781013757969445 L 2.6684064636112392 -4.71503964949515 C 2.644657181577077 -4.718497265556005 2.619825211685481 -4.721431000395519 2.5940153301807145 -4.7239107048432025 M 2.7026333700722236 -4.709696061037465 L 2.7026333700722236 -4.776159125318347 C 2.727561985009217 -4.772328203279667 2.7523701692125493 -4.7677509185886295 2.7770245035027417 -4.762433437319194 L 2.7770245035027417 -4.694922610595629 C 2.7535546247866343 -4.7002312736385585 2.7288274311393073 -4.705225607948683 2.7026333700722236 -4.709696061037465 M 2.811251409963732 -4.686645287298431 L 2.811251409963732 -4.7544355173400445 C 2.834302183702766 -4.748672823905286 2.8557463883630185 -4.742560876322966 2.8753395460411975 -4.7362743016668665 L 2.8753395460411975 -4.668379295380984 C 2.85546698504497 -4.674665870037084 2.8340926312142294 -4.68081274303416 2.811251409963732 -4.686645287298431 M 3.187153648983766 -4.770326581054076 L 3.648238974593958 -4.770326581054076 L 3.648238974593958 -4.704527099653561 L 3.187153648983766 -4.704527099653561 Z M 3.6143962476952853 -4.578620979457776 L 3.535185407028423 -4.578620979457776 L 3.535185407028423 -4.632999850233043 L 3.6143962476952853 -4.632999850233043 Z M 3.500958500567433 -4.578620979457776 L 3.421747659900571 -4.578620979457776 L 3.421747659900571 -4.632999850233043 L 3.500958500567433 -4.632999850233043 Z M 3.387485828024825 -4.578620979457776 L 3.3082749873579624 -4.578620979457776 L 3.3082749873579624 -4.632999850233043 L 3.387485828024825 -4.632999850233043 Z M 3.274048080896973 -4.578620979457776 L 3.194837240230111 -4.578620979457776 L 3.194837240230111 -4.632999850233043 L 3.274048080896973 -4.632999850233043 Z M 4.771999119786621 -4.698275450412217 C 4.747430141329679 -4.705197810238621 4.722616562081867 -4.711220636750883 4.697607986356101 -4.716331889841126 L 4.697607986356101 -4.765786277135781 C 4.723802047423186 -4.760687166581389 4.748564166485269 -4.755134025635167 4.771999119786621 -4.7492316305413835 Z M 4.663381079895112 -4.722793091571007 C 4.639736574105224 -4.7268793650974725 4.614904604213629 -4.73040683198784 4.589024871879349 -4.733270715997841 L 4.589024871879349 -4.782725103292496 C 4.614869678798873 -4.779651666793957 4.639631797860956 -4.776019423659322 4.663381079895112 -4.772003000962369 Z M 4.554797965418359 -4.73669340664394 C 4.530943907139935 -4.73875400611455 4.506077011833583 -4.7401510227047945 4.480406831987841 -4.740989232658942 L 4.480406831987841 -4.792015263617621 C 4.505241990660462 -4.790700450722569 4.530045082615276 -4.78883730766493 4.5547979654183575 -4.786427197256644 Z M 4.446179925526851 -4.741652815539307 C 4.441045889557703 -4.741687740954064 4.436086480662334 -4.741862368027844 4.43091751927843 -4.741862368027844 C 4.410695704134641 -4.741862368027844 4.391067621041706 -4.741443263050771 4.371788792096332 -4.740849530999917 L 4.371788792096332 -4.794599744309574 C 4.375455960645724 -4.79463466972433 4.379018352950847 -4.794704520553842 4.382755372329751 -4.794704520553842 C 4.404478980308053 -4.794704520553842 4.425469154576477 -4.794215564747256 4.446179925526851 -4.793517056452134 Z M 4.337526960220586 -4.739522365239185 C 4.3127075603409635 -4.738329352901302 4.2879164957734925 -4.736605972179843 4.263170752204828 -4.73435340385528 L 4.263170752204828 -4.791002426589694 C 4.287932775511893 -4.792544751392937 4.312723114459099 -4.793592722508601 4.337526960220592 -4.794145713917744 Z M 4.228908920329078 -4.730895787794425 C 4.204046564624912 -4.728110930710206 4.179254120932794 -4.724733848196954 4.154552712313316 -4.720767417515153 L 4.154552712313316 -4.78052480216286 C 4.179270376360988 -4.7837867961037075 4.204062954642475 -4.786453541254699 4.228908920329069 -4.788522722142009 Z M 4.120290880437569 -4.714899947836126 C 4.095368873723241 -4.710329640349954 4.070574481299787 -4.705088928001173 4.045934672421816 -4.699183511195877 L 4.045934672421816 -4.76166507819456 C 4.070578962649426 -4.767023898623767 4.095375009156733 -4.771659326763697 4.120290880437576 -4.7755653932674935 Z M 4.011707765960816 -4.6905569337511155 C 3.9925275134295912 -4.685424425304255 3.9734758109302093 -4.679823038444718 3.9545697874198105 -4.6737578092534235 L 3.9545697874198105 -4.737566542012843 C 3.9722769727011658 -4.7431196829590645 3.991311323743247 -4.748533122246261 4.011707765960816 -4.753632232800654 Z M 4.806226026247611 -4.688042303888675 L 4.806226026247611 -4.740185948119551 C 4.829276799986644 -4.733689820974914 4.850721004646897 -4.726949215926984 4.870803118131661 -4.720103834634786 L 4.870803118131661 -4.664886753905373 C 4.850860706305922 -4.672919599299279 4.829311725401401 -4.680707966789892 4.806226026247611 -4.688042303888675 M 3.954569787419817 -5.011521495359786 C 4.052919755373029 -5.038274363062968 4.192342011079428 -5.06097588265444 4.382720446914996 -5.06097588265444 C 4.595101894046913 -5.06097588265444 4.757085967685761 -5.02971763644772 4.870803118131661 -4.995665357060511 L 4.870803118131661 -4.943905892391952 C 4.744652520032584 -4.982358774038432 4.582249341416664 -5.012464481558201 4.382301341937922 -5.012429556143445 C 4.201911574722603 -5.012499406972957 4.061790810721082 -4.990007439870021 3.954569787419817 -4.959622329032203 Z M 3.876790888757956 -4.897001060374494 C 3.986945646898733 -4.939714842621219 4.149802855906484 -4.97743429055782 4.382301341937922 -4.977469215972577 C 4.6514016626337655 -4.977469215972577 4.850476526743605 -4.922077508169383 4.982634296180733 -4.866685800366189 L 4.982634296180733 -4.781223310457983 C 4.844085175843237 -4.840352037640081 4.642390905626689 -4.900074496873032 4.392639264705731 -4.900074496873032 C 4.169221386510881 -4.900109422287788 3.997772525473128 -4.859770568244478 3.876790888757956 -4.815554993163241 Z M 3.741839086140339 -4.632964924818287 L 3.7393593816926547 -4.578620979457776 L 3.648623154156276 -4.578620979457776 L 3.648623154156276 -4.632964924818287 Z M 3.1000496645820226 -4.921763179436578 L 3.7270307102837466 -4.921763179436578 L 3.7270307102837466 -4.860713554442894 C 3.6891366352733654 -4.8360562116250785 3.66699392231799 -4.815310515259948 3.6573545078453034 -4.805286921224944 L 3.180238416862056 -4.805286921224944 C 3.1697258670204658 -4.815729620237021 3.1441255380042357 -4.838640692317031 3.1000496645820226 -4.865568187093993 Z M 3.1606103337691205 -4.632964924818287 L 3.1606103337691205 -4.578620979457776 L 3.091597714211044 -4.578620979457776 L 3.0890830843486032 -4.632964924818287 Z M 1.9591062153293521 -4.9964337161851455 C 2.0726836641162287 -5.030206592254306 2.233899378630442 -5.06097588265444 2.4447091820983347 -5.06097588265444 C 2.6366592615979267 -5.06097588265444 2.7768498764289604 -5.037925108915407 2.8753395460411966 -5.01085791247942 L 2.8753395460411966 -4.9596572544469595 C 2.766686580734932 -4.990007439870021 2.6254831288759712 -5.012499406972957 2.445163212490164 -5.012429556143445 C 2.2465074533573985 -5.012464481558201 2.084907559280868 -4.9827429536007495 1.9591062153293517 -4.944674251516587 Z M 1.8472750372802815 -4.867733562808872 C 1.9793978813026536 -4.922810941879261 2.1777742371173705 -4.977469215972577 2.445163212490164 -4.977469215972577 C 2.6764393090051386 -4.977469215972577 2.840763385432646 -4.94006409676878 2.9531184447030587 -4.897594792425348 L 2.9531184447030587 -4.814646932379582 C 2.831997106328862 -4.859211761608381 2.6597449607517167 -4.900109422287788 2.434790364307599 -4.900074496873032 C 2.186540516221154 -4.900074496873032 1.9857543067882661 -4.841050545935203 1.8472750372802815 -4.782271072900666 Z M 2.342552343936707 -4.791631084055304 L 2.342552343936707 -4.728346232517229 C 2.317704209502823 -4.726812244198314 2.2928991356927333 -4.72464616733039 2.268161210506189 -4.721850105372592 L 2.268161210506189 -4.785938241450058 C 2.2929146323539795 -4.788368295560681 2.31771739778291 -4.790266347562989 2.342552343936703 -4.791631084055304 M 2.2339343040451984 -4.7819916695826175 L 2.2339343040451984 -4.717519353942834 C 2.20903366286118 -4.714061377975884 2.18422807631583 -4.709950405182219 2.159543170614682 -4.705190682533927 L 2.159543170614682 -4.771164791008222 C 2.183222601819324 -4.7752859899494435 2.2081593479551875 -4.778813456839811 2.2339343040451984 -4.7819916695826175 M 2.12531626415369 -4.764738514693097 L 2.12531626415369 -4.69824052499746 C 2.100354465570884 -4.69281753289059 2.075547882834172 -4.686703234328724 2.050925130723178 -4.679904682250503 L 2.050925130723178 -4.748044166439676 C 2.07429023319501 -4.754016412362971 2.099192053916118 -4.759569553309193 2.12531626415369 -4.764738514693097 M 2.0166982242621816 -4.738928633188331 L 2.0166982242621816 -4.670090640704034 C 1.9973613458717325 -4.664213520879608 1.978159150239896 -4.657902065432395 1.9591062153293437 -4.651161065906218 L 1.9591062153293437 -4.720872193759421 C 1.9772325055877744 -4.726984141341741 1.996197005800343 -4.73309608892406 2.0166982242621816 -4.738928633188331 M 1.9821919144831426 -0.6451810679654075 L 1.9232727397895815 -0.6451810679654075 L 1.9232727397895815 -1.4669760771767253 L 1.9821919144831426 -1.440747090694885 Z M 1.9821919144831426 -1.5992386228581217 C 1.978664447592775 -1.5979114570973896 1.9376270852543434 -1.5965493659219008 1.9235521431076301 -1.5951523493316557 L 1.9235521431076301 -2.396236587592599 L 1.9797471354502143 -2.373989098392956 C 1.9797471354502143 -2.373989098392956 1.9817728095060692 -2.3733255155125894 1.982191914483142 -2.3735699934158827 Z M 1.9822268398978986 -2.5532961777508354 C 1.9750322044581394 -2.5505719953998587 1.9520163561338617 -2.547812887634126 1.9249142342831185 -2.545053779868393 L 1.9249142342831185 -3.3250430676166447 L 1.9799217625239953 -3.306078567404076 C 1.9799217625239953 -3.306078567404076 1.9813187791142404 -3.305903940330295 1.9822268398978986 -3.306357970722125 Z M 1.9822268398978986 -3.5073537326435495 C 1.9714698121530159 -3.5032325337023282 1.9675232402855756 -3.4991113347611074 1.926870057509461 -3.4949901358198856 L 1.926870057509461 -4.253535218907885 L 1.9800963895977761 -4.238133111000439 L 1.9822268398978993 -4.239180873443122 Z M 2.017187180068767 -3.3159624597800557 C 2.037024815650239 -3.3244493355657907 2.111939830302099 -3.33604457326482 2.1496942036534565 -3.345858614811287 L 2.1496942036534565 -2.581271434970481 C 2.129332686850643 -2.577848744324382 2.040168102978289 -2.5693967939534033 2.017187180068767 -2.5616433518775463 Z M 2.017187180068767 -2.376852982402957 C 2.027105997859503 -2.381078957588447 2.1307995542703995 -2.386876576437962 2.1496942036534565 -2.3918010599185733 L 2.1496942036534565 -1.6132437141753222 C 2.1394959825446715 -1.6115323688522727 2.0286776415235277 -1.6072714682520273 2.017187180068767 -1.6034296726288546 Z M 2.017187180068767 -1.4377085796111029 L 2.1496942036534565 -1.4377085796111029 L 2.1496942036534565 -0.6451810679654075 L 2.017187180068767 -0.6451810679654075 Z M 2.7872925754410387 -0.44872560996227673 L 2.0768747138869625 -0.44872560996227673 L 2.0768747138869625 -0.6102207277945384 L 2.366860432606961 -0.6102207277945384 L 2.366860432606961 -1.4903411796485635 L 2.0768747138869625 -1.4903411796485635 L 2.0768747138869625 -1.568469332457986 C 2.098436992061346 -1.5707541265205491 2.119935242370428 -1.5736073612582127 2.1413470295267447 -1.5770260590732335 C 2.1715575132907823 -1.5824744237751878 2.334973528934631 -1.5851636807114078 2.35096936889293 -1.5851636807114078 L 2.368187598367693 -1.5851636807114078 L 2.368187598367693 -2.4581593479551858 L 2.350934443478174 -2.4581593479551858 C 2.332878004049264 -2.4581244225404295 2.157238093240776 -2.4530253119860372 2.1295073139244227 -2.446110079864327 C 2.1214395431157613 -2.4440494803937165 2.101392355045752 -2.441884104678838 2.076874713886962 -2.4396488781344465 L 2.076874713886962 -2.531258241039729 C 2.097910301721732 -2.5357427362601355 2.119007296074961 -2.5399341920919034 2.140159565425039 -2.543831390351929 C 2.200580532953111 -2.5546931943410796 2.3201651530780385 -2.5601764844577897 2.352121907579881 -2.560106633628277 L 2.369479838713669 -2.560106633628277 L 2.369479838713669 -3.425977516261808 L 2.352121907579881 -3.425977516261808 C 2.316043954136817 -3.425907665432296 2.1854578283637145 -3.4157094443235114 2.1299962697310084 -3.4018789800800913 C 2.1123899084677715 -3.3976586442193444 2.094676730815084 -3.3938970686888923 2.0768747138869643 -3.3905980711138675 L 2.0768747138869643 -3.4969459590462284 C 2.0961186174175794 -3.501905367941596 2.116759537538442 -3.5065853735189156 2.138972101323329 -3.5106017962158678 C 2.22960355261544 -3.5269468903217285 2.3053567772214474 -3.5351194373746586 2.353309371681589 -3.5350146611303908 L 2.370807004474402 -3.5350146611303908 L 2.370807004474402 -4.39379568456843 L 2.353309371681589 -4.39379568456843 C 2.299209904224371 -4.393690908324162 2.2137124889014093 -4.378393576660985 2.13052015095235 -4.357612954881098 C 2.1125610749394648 -4.353096989655228 2.0946768820743076 -4.348288284151771 2.076874713886968 -4.343188758586826 L 2.076874713886968 -4.550191691846301 C 2.1926083407982184 -4.582687508527883 2.312241198970481 -4.599208852068812 2.4324503615189386 -4.599296824993393 C 2.552397997427303 -4.599188748048743 2.6717733677550703 -4.5827628850843505 2.7872925754410387 -4.550471095164349 L 2.7872925754410387 -4.33882308174231 C 2.7651847879004188 -4.3453541343017035 2.742099088746629 -4.351710559787316 2.7185942846157656 -4.357612954881098 C 2.6354019466667062 -4.378393576660985 2.549904531343744 -4.393690908324162 2.4957701384717703 -4.39379568456843 L 2.478272505678958 -4.39379568456843 L 2.478272505678958 -3.5350146611303908 L 2.4957701384717703 -3.5350146611303908 C 2.543757658346668 -3.5351194373746586 2.6194759575379196 -3.5269468903217285 2.71010740883003 -3.5106017962158678 C 2.738222367708701 -3.505502685661476 2.7639623983839554 -3.4994256634939123 2.7872925754410374 -3.492964461764031 L 2.7872925754410374 -3.3876992616891095 C 2.764443684010945 -3.3918082454497336 2.741710512375866 -3.3965365588123584 2.7191181658371084 -3.4018789800800904 C 2.663621681789645 -3.4157094443235114 2.5330355560165416 -3.425907665432296 2.496992527988234 -3.425977516261808 L 2.47959967143969 -3.425977516261808 L 2.47959967143969 -2.560071708213521 L 2.496957602573478 -2.560071708213521 C 2.5289143570753208 -2.5601764844577892 2.6485339026150045 -2.5546931943410796 2.708954870143079 -2.5437964649371727 C 2.7334026604723567 -2.5393609372631465 2.760574633152612 -2.5338077963169248 2.7872925754410374 -2.5280451028821664 L 2.7872925754410374 -2.4382867869589586 C 2.7560692546490735 -2.4410109693099353 2.7292465361163787 -2.4436653008313995 2.719572196228937 -2.4461100798643276 C 2.6918414169125837 -2.4530253119860377 2.5162015061040957 -2.45812442254043 2.498179992089942 -2.458159347955186 L 2.480926837200423 -2.458159347955186 L 2.480926837200423 -1.5851636807114082 L 2.498145066675186 -1.5851636807114082 C 2.5141059812187287 -1.5851636807114082 2.6775219968625774 -1.5824744237751882 2.7077674060413703 -1.5770260590732343 C 2.723274290193084 -1.5742320258927451 2.753729251860414 -1.5704950065138417 2.7872925754410374 -1.566792912549693 L 2.7872925754410374 -1.490341179648564 L 2.4822540029611546 -1.490341179648564 L 2.4822540029611546 -0.6102207277945393 L 2.7872925754410374 -0.6102207277945393 Z M 2.184619618409568 -1.4377085796111029 L 2.331900092436093 -1.4377085796111029 L 2.331900092436093 -0.6451810679654075 L 2.184619618409568 -0.6451810679654075 Z M 2.184654543824325 -1.6150947611573963 L 2.184654543824325 -2.394560167684306 C 2.199986800902258 -2.3979479329156486 2.315240669597428 -2.400497488192845 2.3331923327820694 -2.4009864439994306 L 2.3331923327820694 -1.6199493938084952 C 2.319571421027186 -1.6192508855133734 2.197437245625062 -1.6178538689231288 2.184654543824325 -1.6150947611573963 M 2.184654543824325 -2.585008454349385 L 2.184654543824325 -3.351446681172265 C 2.215353983394947 -3.3581872862201942 2.298546321344006 -3.363251471359831 2.3345544239575577 -3.3642643083877584 L 2.3345544239575577 -2.5947526450663405 C 2.307207824203522 -2.59332070306134 2.210289798255311 -2.590526669880851 2.184654543824325 -2.585008454349385 M 2.184654543824325 -3.554887222126618 L 2.184654543824325 -4.308298269245468 C 2.230721165887637 -4.31842663952474 2.281886898505341 -4.3260054545268165 2.335846664303534 -4.327507247361329 L 2.335846664303534 -3.569520970909429 C 2.294879152794614 -3.5673905206093055 2.223107425470804 -3.5631645454238163 2.184654543824325 -3.554887222126618 M 2.83192725549935 -4.2551068625719095 L 2.83192725549935 -3.5198570311262376 C 2.7974907965498232 -3.5314522688252667 2.7299450444115028 -3.5441651197964914 2.699420231914661 -3.549334081180396 L 2.699420231914661 -4.299951095118757 C 2.7446174532022423 -4.28823335202001 2.7889031479013915 -4.273245784283135 2.8319272554993513 -4.255106862571909 M 2.6644249663290362 -4.308298269245468 L 2.6644249663290362 -3.554887222126618 C 2.626007010097313 -3.5631645454238163 2.5542003573587464 -3.5673905206093055 2.5132328458498274 -3.569520970909429 L 2.5132328458498274 -4.327507247361329 C 2.564121444555001 -4.325864197459177 2.614742263502379 -4.319432815980531 2.664424966329036 -4.308298269245467 M 2.664459891743793 -3.3514466811722645 L 2.664459891743793 -2.584973528934629 C 2.6388246373128066 -2.5904917444660946 2.5418716859498387 -2.5933207030613397 2.5145600116105595 -2.5947526450663405 L 2.5145600116105595 -3.3642643083877584 C 2.550533188809355 -3.3632514713598307 2.63376045217317 -3.3581872862201942 2.664459891743793 -3.351446681172265 M 2.664459891743793 -2.394560167684306 L 2.664459891743793 -1.6150947611573963 C 2.6516422645282995 -1.6178538689231288 2.5295430145409314 -1.6192508855133734 2.5158871773712916 -1.6199493938084952 L 2.5158871773712916 -2.4009864439994306 C 2.5338737659706894 -2.400497488192845 2.6491276346658594 -2.3979479329156486 2.664459891743793 -2.394560167684306 M 2.6644948171585487 -0.6451810679654075 L 2.517214343132024 -0.6451810679654075 L 2.517214343132024 -1.4377085796111029 L 2.6644948171585487 -1.4377085796111029 Z M 2.83192725549935 -0.6451810679654075 L 2.699420231914661 -0.6451810679654075 L 2.699420231914661 -1.4377085796111029 L 2.83192725549935 -1.4377085796111029 Z M 2.83192725549935 -1.6034296726288546 C 2.82043679404459 -1.6072714682520273 2.7095835276086895 -1.6115323688522727 2.699420231914661 -1.6132437141753222 L 2.699420231914661 -2.3918010599185733 C 2.7182799558829616 -2.3868765764379614 2.821973512293858 -2.381078957588447 2.83192725549935 -2.376852982402957 Z M 2.83192725549935 -2.561643351877546 C 2.8089463325898287 -2.5693967939534033 2.7197817487174745 -2.577848744324382 2.699420231914661 -2.581271434970481 L 2.699420231914661 -3.345858614811287 C 2.737139679851262 -3.3360445732648194 2.812054694503122 -3.3244144101510344 2.83192725549935 -3.3159973851948115 Z M 2.8668875956702187 -3.3063579707221242 C 2.8677956564538776 -3.305938865745051 2.869157747629366 -3.306078567404075 2.869157747629366 -3.306078567404075 L 2.9241652758702426 -3.325008142201888 L 2.9241652758702426 -2.545088705283149 C 2.8970631540195 -2.547812887634126 2.8740473056952216 -2.5505719953998587 2.8668875956702187 -2.5532961777508354 Z M 2.925527367045731 -2.396236587592599 L 2.925527367045731 -1.595187274746412 C 2.9114873503137737 -1.5965493659219003 2.8704499879753422 -1.5979114570973887 2.8668875956702187 -1.5992386228581212 L 2.8668875956702187 -2.3735699934158827 C 2.867341626062048 -2.3733255155125894 2.8693323747031463 -2.373989098392956 2.8693323747031463 -2.373989098392956 Z M 2.9258067703637796 -0.6451810679654075 L 2.8668875956702187 -0.6451810679654075 L 2.8668875956702187 -1.440747090694884 L 2.9258067703637796 -1.4669760771767244 Z M 3.7462047629848523 -0.3860694158898115 L 3.0783609820184767 -0.3860694158898115 L 3.0783609820184767 -0.43395215952044097 L 3.7462047629848523 -0.43395215952044097 Z M 3.672442287019944 -2.4973805887263 L 3.425030648887646 -2.4973805887263 L 3.425030648887646 -3.2536205944403953 L 3.672442287019944 -3.2536205944403953 Z M 3.425030648887646 -4.179318712551146 L 3.672442287019944 -4.179318712551146 L 3.672442287019944 -3.412251828262656 L 3.425030648887646 -3.412251828262656 Z M 3.4719704063198606 -1.4226906512659747 L 3.627004322422242 -1.4226906512659747 L 3.627004322422242 -1.0193021108328804 L 3.4719704063198606 -1.0193021108328804 Z M 3.627004322422242 -0.6921208253976214 L 3.4719704063198606 -0.6921208253976214 L 3.4719704063198606 -0.9258766263602798 L 3.627004322422242 -0.9258766263602798 Z M 3.425030648887646 -2.3415783134992845 L 3.672442287019944 -2.3415783134992845 L 3.672442287019944 -1.5824744237751878 L 3.425030648887646 -1.5824744237751878 Z M 3.6792876683121416 -0.5599630559604938 L 3.145243151276432 -0.5599630559604938 L 3.145243151276432 -0.6078457995911233 L 3.6792876683121416 -0.6078457995911233 Z M 3.3900353833020214 -1.5824744237751878 L 3.1426935959992357 -1.5824744237751878 L 3.1426935959992357 -2.3415783134992845 L 3.3900353833020214 -2.3415783134992845 Z M 3.1426935959992357 -3.2536205944403953 L 3.3900353833020214 -3.2536205944403953 L 3.3900353833020214 -2.4973805887263 L 3.1426935959992357 -2.4973805887263 Z M 3.3431654766993195 -0.6921208253976214 L 3.188096635182182 -0.6921208253976214 L 3.188096635182182 -0.9258766263602798 L 3.3431654766993195 -0.9258766263602798 Z M 3.188096635182182 -1.4226906512659747 L 3.3431305512845633 -1.4226906512659747 L 3.3431305512845633 -1.0193021108328804 L 3.188096635182182 -1.0193021108328804 Z M 3.390070308716778 -3.412251828262656 L 3.1426935959992357 -3.412251828262656 L 3.1426935959992357 -4.179318712551146 L 3.390070308716778 -4.179318712551146 Z M 3.717705624543866 -0.4729987732177747 L 3.1102828111055643 -0.4729987732177747 L 3.1102828111055643 -0.5208815168484042 L 3.717705624543866 -0.5208815168484042 Z M 3.7842385396542593 -3.2404886384920966 L 3.707367701776056 -3.382495374890448 L 3.707367701776056 -4.2290525031638495 L 3.24928596183489 -4.2290525031638495 L 3.1003989187295846 -4.504194920612501 L 3.7842385396542593 -4.504194920612501 Z M 3.96766681795336 -0.6451810679654066 L 3.908747643259799 -0.6451810679654066 L 3.908747643259799 -1.466976077176724 L 3.96766681795336 -1.440747090694884 Z M 3.96766681795336 -1.5992386228581204 C 3.9641393510629928 -1.5979114570973882 3.9230670633098046 -1.5965493659218999 3.9090270465778474 -1.5951523493316553 L 3.9090270465778474 -2.396236587592598 L 3.9651871135056758 -2.3739890983929546 C 3.9651871135056758 -2.3739890983929546 3.96721278756153 -2.3733255155125885 3.9676668179533596 -2.373569993415882 Z M 3.96766681795336 -2.5532961777508345 C 3.9605071079283567 -2.550571995399858 3.937491259604079 -2.5478128876341253 3.910389137753336 -2.5450537798683923 L 3.910389137753336 -3.325043067616644 L 3.965396665994213 -3.306078567404075 C 3.965396665994213 -3.306078567404075 3.966758757169701 -3.3059039403302943 3.96766681795336 -3.306357970722124 Z M 3.9677017433681163 -3.5073537326435487 C 3.9569097902084773 -3.5032325337023273 3.952998143755793 -3.4991113347611065 3.912344960979678 -3.4949901358198856 L 3.912344960979678 -4.253535218907883 L 3.965571293067993 -4.2381331110004385 L 3.9677017433681163 -4.2391808734431216 Z M 4.002627158124228 -3.315962459780054 C 4.0224997191204555 -3.32444933556579 4.097414733772316 -3.336044573264819 4.135134181708917 -3.345858614811286 L 4.135134181708917 -2.58127143497048 C 4.114772664906104 -2.577848744324381 4.02560808103375 -2.569396793953402 4.002627158124228 -2.5616433518775454 Z M 4.002627158124228 -2.3768529824029563 C 4.01258090132972 -2.381078957588446 4.116274457740617 -2.386876576437961 4.135134181708917 -2.391801059918572 L 4.135134181708917 -1.6132437141753218 C 4.124935960600133 -1.6115323688522714 4.01411761957899 -1.607271468252026 4.002627158124228 -1.6034296726288537 Z M 4.002662083538984 -1.437708579611102 L 4.135169107123674 -1.437708579611102 L 4.135169107123674 -0.6451810679654058 L 4.002662083538984 -0.6451810679654058 Z M 4.739588334892949 -0.45200859894935075 L 4.051278260879492 -0.45200859894935075 L 4.051278260879492 -0.6102207277945384 L 4.352300410662422 -0.6102207277945384 L 4.352300410662422 -1.4903411796485635 L 4.051278260879492 -1.4903411796485635 L 4.051278260879492 -1.5672469429415221 C 4.083235015381335 -1.5707744098318894 4.111908780896103 -1.574336802137013 4.126821932996963 -1.5770260590732335 C 4.157032416761 -1.5824744237751873 4.320448432404848 -1.5851636807114078 4.336444272363147 -1.5851636807114078 L 4.353627576423155 -1.5851636807114078 L 4.353627576423155 -2.4581593479551853 L 4.3364093469483915 -2.4581593479551853 C 4.318352907519482 -2.458124422540429 4.142712996710994 -2.453025311986037 4.11498221739464 -2.4461100798643267 C 4.105726982484271 -2.4437700770756674 4.080790236348407 -2.4412554472132273 4.051278260879492 -2.438636041106519 L 4.051278260879492 -2.5289531636658245 C 4.076703962821942 -2.5344015283677783 4.102374142667684 -2.539605415166439 4.125634468895255 -2.5438313903519285 C 4.186055436423329 -2.5546931943410796 4.305640056548257 -2.5601764844577892 4.337561885635343 -2.5601066336282767 L 4.354954742183887 -2.5601066336282767 L 4.354954742183887 -3.425977516261808 L 4.337561885635343 -3.425977516261808 C 4.301518857607036 -3.4259076654322955 4.170932731833933 -3.415709444323511 4.115471173201226 -3.401878980080091 C 4.094196418160876 -3.396839318005437 4.072791188705828 -3.392367278772173 4.051278260879498 -3.3884676208137448 L 4.051278260879498 -3.4940820750362267 C 4.075418583083045 -3.5006396930875923 4.099830922080131 -3.506151404947077 4.124447004793545 -3.5106017962158673 C 4.215078456085657 -3.526946890321728 4.290831680691665 -3.535119437374658 4.3387842751518075 -3.53501466113039 L 4.356281907944619 -3.53501466113039 L 4.356281907944619 -4.39379568456843 L 4.3387842751518075 -4.39379568456843 C 4.284649882279833 -4.393690908324162 4.19915246695687 -4.378393576660985 4.115960129007812 -4.357612954881098 C 4.094289714252806 -4.352156643739849 4.0727251813106955 -4.346288109937029 4.051278260879495 -4.340010545844018 L 4.051278260879495 -4.554627219520326 C 4.161898558288021 -4.584191657133193 4.2759012072224705 -4.599208071961942 4.390404038161342 -4.599296824993393 C 4.508388422469673 -4.599199597047435 4.625827930240797 -4.583295106797175 4.7395883348929475 -4.552007813413618 L 4.7395883348929475 -4.34825294372646 C 4.727853395534896 -4.3514660818840225 4.71604860534733 -4.354609369212072 4.704069188085984 -4.357612954881098 C 4.620876850136924 -4.378393576660985 4.535344509399206 -4.393690908324162 4.481245041941988 -4.39379568456843 L 4.4637474091491764 -4.39379568456843 L 4.4637474091491764 -3.53501466113039 L 4.481245041941988 -3.53501466113039 C 4.52919763640213 -3.535119437374658 4.604950861008137 -3.526946890321728 4.695582312300248 -3.5106017962158678 C 4.710984420207693 -3.5078077630353786 4.725583243575748 -3.504699401122085 4.739588334892949 -3.5014164121350104 L 4.739588334892949 -3.39416046341899 C 4.726386528115139 -3.3968147949404544 4.714372185439037 -3.3993992756324065 4.704558143892569 -3.401878980080091 C 4.649096585259863 -3.415709444323511 4.51851045948676 -3.425907665432296 4.482467431458453 -3.425977516261808 L 4.465074574909908 -3.425977516261808 L 4.465074574909908 -2.560071708213521 L 4.482432506043696 -2.560071708213521 C 4.5143892605455385 -2.5601764844577892 4.6339738806704664 -2.5546931943410796 4.69439484819854 -2.5437964649371727 C 4.708749193663302 -2.5412119842452205 4.72404652532648 -2.5382083985761947 4.739588334892949 -2.5350301858333886 L 4.739588334892949 -2.4413951488722523 C 4.7236274203494055 -2.443001717951033 4.710984420207693 -2.4446082870298143 4.705047099699154 -2.446110079864327 C 4.677316320382801 -2.4530253119860372 4.501676409574313 -2.4581244225404295 4.483619970145404 -2.4581593479551858 L 4.466366815255884 -2.4581593479551858 L 4.466366815255884 -1.5851636807114082 L 4.483585044730647 -1.5851636807114082 C 4.499580884688947 -1.5851636807114082 4.662996900332796 -1.5824744237751882 4.693207384096832 -1.5770260590732343 C 4.703370679790861 -1.5751750120911603 4.719925326385258 -1.5729397855467693 4.739588334892949 -1.5705997827581095 L 4.739588334892949 -1.490341179648564 L 4.467693981016617 -1.490341179648564 L 4.467693981016617 -0.6102207277945393 L 4.739588334892949 -0.6102207277945393 Z M 4.170094521879785 -1.437708579611102 L 4.3173749959063095 -1.437708579611102 L 4.3173749959063095 -0.6451810679654058 L 4.170094521879785 -0.6451810679654058 Z M 4.170094521879785 -1.615094761157395 L 4.170094521879785 -2.394560167684305 C 4.185426778957718 -2.3979479329156477 4.300715573067645 -2.400497488192844 4.318667236252286 -2.4009864439994293 L 4.318667236252286 -1.6199493938084948 C 4.305011399082647 -1.619250885513373 4.182912149095279 -1.6178538689231279 4.170094521879785 -1.615094761157395 M 4.170094521879785 -2.585008454349384 L 4.170094521879785 -3.351446681172264 C 4.200793961450408 -3.3581872862201934 4.284021224814223 -3.3632514713598303 4.319994402013019 -3.3642643083877575 L 4.319994402013019 -2.594752645066339 C 4.292682727673739 -2.5933207030613388 4.195729776310772 -2.59052666988085 4.170094521879785 -2.5850084543493836 M 4.170129447294542 -3.5548872221266166 L 4.170129447294542 -4.308298269245467 C 4.216161143943098 -4.3184266395247395 4.267361801975558 -4.326005454526816 4.321321567773752 -4.3275072473613285 L 4.321321567773752 -3.5695209709094273 C 4.280354056264832 -3.5673905206093046 4.208547403526265 -3.563164545423815 4.170129447294542 -3.5548872221266166 M 4.817367233554811 -4.255106862571909 L 4.817367233554811 -3.5198570311262367 C 4.782930774605285 -3.531452268825266 4.7154199478817205 -3.5441651197964905 4.6848951353848785 -3.549334081180395 L 4.6848951353848785 -4.2999510951187565 C 4.730082937734904 -4.288239902146377 4.7743574915680576 -4.273252154421154 4.817367233554812 -4.255106862571909 M 4.6498998697992535 -4.308298269245467 L 4.6498998697992535 -3.5548872221266166 C 4.611446988152775 -3.5631645454238154 4.539675260828964 -3.5673905206093046 4.498707749320044 -3.5695209709094273 L 4.498707749320044 -4.3275072473613285 C 4.552667515118237 -4.326005454526816 4.603833247735942 -4.3184266395247395 4.6498998697992535 -4.308298269245467 M 4.6498998697992535 -3.3514466811722636 L 4.6498998697992535 -2.584973528934628 C 4.624264615368268 -2.5904917444660938 4.527346589420056 -2.5933207030613388 4.499999989666021 -2.594752645066339 L 4.499999989666021 -3.3642643083877575 C 4.536008092279572 -3.36325147135983 4.619200430228632 -3.3581872862201934 4.6498998697992535 -3.351446681172264 M 4.649934795214009 -2.394560167684305 L 4.649934795214009 -1.615094761157395 C 4.637117167998516 -1.6178538689231279 4.5149829925963925 -1.619250885513373 4.501362080841509 -1.6199493938084948 L 4.501362080841509 -2.4009864439994293 C 4.51931374402615 -2.400497488192844 4.6345676127213205 -2.3979479329156477 4.649934795214009 -2.394560167684305 M 4.649934795214009 -0.6451810679654058 L 4.502654321187485 -0.6451810679654058 L 4.502654321187485 -1.437708579611102 L 4.649934795214009 -1.437708579611102 Z M 4.817367233554811 -0.6451810679654058 L 4.684860209970122 -0.6451810679654058 L 4.684860209970122 -1.437708579611102 L 4.817367233554811 -1.437708579611102 Z M 4.817367233554811 -1.6034296726288537 C 4.805911697514806 -1.607271468252026 4.695058431078906 -1.6115323688522714 4.684860209970122 -1.6132437141753218 L 4.684860209970122 -2.391801059918572 C 4.703754859353179 -2.38687657643796 4.8074484157640756 -2.381078957588446 4.817367233554811 -2.3768529824029563 Z M 4.817402158969568 -2.561643351877545 C 4.794421236060045 -2.569396793953402 4.705221726772936 -2.577848744324381 4.6848951353848785 -2.58127143497048 L 4.6848951353848785 -3.345858614811286 C 4.722614583321479 -3.3360445732648185 4.797529597973339 -3.324414410151033 4.817402158969568 -3.31599738519481 Z M 4.852327573725679 -4.2391808734431216 L 4.854458024025802 -4.238133111000438 L 4.907684356114117 -4.253535218907883 L 4.907684356114117 -3.4949901358198847 C 4.8670311733380025 -3.499111334761106 4.863084601470562 -3.5032325337023273 4.852327573725679 -3.507353732643548 Z M 4.911281673833996 -0.6451810679654058 L 4.852327573725679 -0.6451810679654058 L 4.852327573725679 -1.4407470906948836 L 4.911281673833996 -1.466976077176724 Z" fill="#434386" transform="matrix(1,0,0,1,0,0)" fill-rule="nonzero"></path></g></g></g><defs><clipPath id="SvgjsClipPath1030"><path d=" M 0 -5.095939606320636 h 6.819195547766068 v 4.845939606320636 h -6.819195547766068 Z"></path></clipPath><clipPath id="bbcd614d8-e148-47ea-a185-540166341d763da22b9f-d79d-4771-b613-c973d4905436"><path d=" M -0.0349254147561121 -5.130861637581421 L 6.854112645886999 -5.130861637581421 L 6.854112645886999 -0.21507458524388756 L -0.0349254147561121 -0.21507458524388756 Z"></path></clipPath></defs></svg>